<?xml version="1.0" ?><svg viewBox="0 0 64 64" xmlns="http://www.w3.org/2000/svg"><title/><g data-name="42-Bodybuilding" id="_42-Bodybuilding"><path d="M26.05,37.84l-4.94-.41-1.04-.09A3,3,0,0,1,23,35l4-1,.3.1Z" style="fill:#ffdaaa"/><path d="M41,35a3,3,0,0,1,2.93,2.34l-1.04.09-4.94.41L36.7,34.1,37,34Z" style="fill:#ffdaaa"/><path d="M48,47v1c0,2.21-1.79,8-4,8H39a7,7,0,0,1-7-7,11.6,11.6,0,0,1,9-4S43,45,48,47Z" style="fill:#ff7045"/><path d="M23,45a11.6,11.6,0,0,1,9,4,7,7,0,0,1-7,7H20c-2.21,0-4-5.79-4-8V47C21,45,23,45,23,45Z" style="fill:#ff7045"/><path d="M41,45a11.6,11.6,0,0,0-9,4,6.971,6.971,0,0,0,.767,3.179A11.862,11.862,0,0,1,41,49s1.879.006,6.523,1.814A11.621,11.621,0,0,0,48,48V47C43,45,41,45,41,45Z" style="fill:#f92814"/><path d="M23,49a11.862,11.862,0,0,1,8.233,3.179A6.971,6.971,0,0,0,32,49a11.6,11.6,0,0,0-9-4s-2,0-7,2v1a11.621,11.621,0,0,0,.477,2.814C21.121,49.006,23,49,23,49Z" style="fill:#f92814"/><path d="M32,63H21c0-2-1-4-1-7h5a7,7,0,0,0,7-7,7,7,0,0,0,7,7h5c0,3-1,5-1,7Z" style="fill:#ffb680"/><path d="M25,59a7,7,0,0,0,7-7,7,7,0,0,0,7,7h4.685A15.326,15.326,0,0,0,44,56H39a7,7,0,0,1-7-7,7,7,0,0,1-7,7H20a15.326,15.326,0,0,0,.315,3Z" style="fill:#eb975d"/><path d="M16,54v9H7V57.66a4,4,0,0,1,1.17-2.83l1.55-1.55a3.991,3.991,0,0,0,5.11-.45L15,53Z" style="fill:#ffb680"/><path d="M49,53l.17-.17a3.991,3.991,0,0,0,5.11.45l1.55,1.55A4,4,0,0,1,57,57.66V63H48V54Z" style="fill:#ffb680"/><path d="M15,53l-.17-.17a3.991,3.991,0,0,1-5.11.45L8.17,54.83A4,4,0,0,0,7,57.66v3a4,4,0,0,1,1.17-2.83l1.55-1.55a3.991,3.991,0,0,0,5.11-.45L15,56l1,1V54Z" style="fill:#eb975d"/><path d="M55.83,54.83l-1.55-1.55a3.991,3.991,0,0,1-5.11-.45L49,53l-1,1v3l1-1,.17-.17a3.991,3.991,0,0,0,5.11.45l1.55,1.55A4,4,0,0,1,57,60.66v-3A4,4,0,0,0,55.83,54.83Z" style="fill:#eb975d"/><path d="M54.28,53.28A3.994,3.994,0,0,1,48,50V47c-5-2-7-2-7-2l1.89-7.57,1.04-.09L48,37l4,1a4,4,0,0,1,4,4v8A3.981,3.981,0,0,1,54.28,53.28Z" style="fill:#ffdaaa"/><path d="M16,48v2a3.993,3.993,0,0,1-6.28,3.28A3.981,3.981,0,0,1,8,50V42a4,4,0,0,1,4-4l4-1,4.07.34,1.04.09L23,45s-2,0-7,2Z" style="fill:#ffdaaa"/><path d="M32,42v7a11.6,11.6,0,0,0-9-4l-1.89-7.57,4.94.41L28,38A4,4,0,0,1,32,42Z" style="fill:#ffdaaa"/><path d="M41,45a11.6,11.6,0,0,0-9,4V42a4,4,0,0,1,4-4l1.95-.16,4.94-.41Z" style="fill:#ffdaaa"/><path d="M52,38l-4-1-4.07.34-1.04.09L41,45a5.685,5.685,0,0,1,.729.079L42.89,40.43l1.04-.09L48,40l4,1a4,4,0,0,1,4,4V42A4,4,0,0,0,52,38Z" style="fill:#ffb680"/><path d="M12,41l4-1,4.07.34,1.04.09,1.161,4.649A5.685,5.685,0,0,1,23,45l-1.89-7.57-1.04-.09L16,37l-4,1a4,4,0,0,0-4,4v3A4,4,0,0,1,12,41Z" style="fill:#ffb680"/><path d="M28,38l-1.95-.16-4.94-.41.765,3.063,4.175.347L28,41a4,4,0,0,1,4,4V42A4,4,0,0,0,28,38Z" style="fill:#ffb680"/><path d="M36,41l1.95-.16,4.175-.347.765-3.063-4.94.41L36,38a4,4,0,0,0-4,4v3A4,4,0,0,1,36,41Z" style="fill:#ffb680"/><path d="M36,38a4,4,0,0,0-4,4,4,4,0,0,0-4-4l-1.95-.16L27.3,34.1l.44-1.33a7.992,7.992,0,0,0,8.52,0l.44,1.33,1.25,3.74Z" style="fill:#eb975d"/><path d="M27.3,37.1l.44-1.33a7.992,7.992,0,0,0,8.52,0l.44,1.33.274.82.976-.08L36.7,34.1l-.44-1.33a7.992,7.992,0,0,1-8.52,0L27.3,34.1l-1.25,3.74.976.08Z" style="fill:#ffb680"/><path d="M38.24,31a7.207,7.207,0,0,1-.58.66,8.006,8.006,0,0,1-9.92,1.11A7.608,7.608,0,0,1,25.76,31,7.963,7.963,0,0,1,24,26l-.39-4.29C31.87,19.91,36,10,36,10v9s5-3,5-7v3L40,26A7.963,7.963,0,0,1,38.24,31Z" style="fill:#ffdaaa"/><path d="M36,13V10s-4.13,9.91-12.39,11.71l.267,2.933C31.957,22.689,36,13,36,13Z" style="fill:#ffb680"/><path d="M36,19v3s4.322-2.6,4.925-6.18L41,15V12C41,16,36,19,36,19Z" style="fill:#ffb680"/><path d="M38.24,31A7.963,7.963,0,0,0,40,26l1-11V12c0,4-5,7-5,7V10s-4.13,9.91-12.39,11.71L24,26a7.963,7.963,0,0,0,1.76,5H24l-2-2-2,2c-2-3-2-16-2-16a14,14,0,0,1,28,0s0,13-2,16l-2-2-2,2Z" style="fill:#414952"/><path d="M32,4A13.99,13.99,0,0,1,45.963,17.277C46,15.9,46,15,46,15a14,14,0,0,0-28,0s0,.9.037,2.277A13.99,13.99,0,0,1,32,4Z" style="fill:#636978"/><path d="M23.55,21l.06.71L24,26a7.963,7.963,0,0,0,1.76,5,7.608,7.608,0,0,0,1.98,1.77,8.033,8.033,0,0,0,9.92-1.11,7.207,7.207,0,0,0,.58-.66A7.963,7.963,0,0,0,40,26l1-11V12c0,4-5,7-5,7V10s-4.13,9.91-12.39,11.71A11.663,11.663,0,0,1,21,22" style="fill:none;stroke:#000;stroke-linejoin:round;stroke-width:2px"/><path d="M38,31h2l2-2,2,2c2-3,2-16,2-16a14,14,0,0,0-28,0s0,13,2,16l2-2,2,2h2" style="fill:none;stroke:#000;stroke-linejoin:round;stroke-width:2px"/><polyline points="36 32 36.26 32.77 36.7 34.1 37.95 37.84 38 38" style="fill:none;stroke:#000;stroke-linejoin:round;stroke-width:2px"/><polyline points="28 32 27.74 32.77 27.3 34.1 26.05 37.84 26 38" style="fill:none;stroke:#000;stroke-linejoin:round;stroke-width:2px"/><path d="M32,42a4,4,0,0,0-4-4l-1.95-.16-4.94-.41-1.04-.09L16,37l-4,1a4,4,0,0,0-4,4v8a4.014,4.014,0,0,0,4,4,3.995,3.995,0,0,0,4-4V44" style="fill:none;stroke:#000;stroke-linejoin:round;stroke-width:2px"/><path d="M16,48c0,2.21,1.79,8,4,8h5a7,7,0,0,0,7-7" style="fill:none;stroke:#000;stroke-linejoin:round;stroke-width:2px"/><path d="M48,48c0,2.21-1.79,8-4,8H39a7,7,0,0,1-7-7V42a4,4,0,0,1,4-4l1.95-.16,4.94-.41,1.04-.09L48,37l4,1a4,4,0,0,1,4,4v8a4.014,4.014,0,0,1-4,4,3.995,3.995,0,0,1-4-4V45" style="fill:none;stroke:#000;stroke-linejoin:round;stroke-width:2px"/><path d="M37,34l4,1a3,3,0,0,1,2.93,2.34A3.512,3.512,0,0,1,44,38" style="fill:none;stroke:#000;stroke-linejoin:round;stroke-width:2px"/><path d="M27,34l-4,1a3,3,0,0,0-2.93,2.34A3.512,3.512,0,0,0,20,38" style="fill:none;stroke:#000;stroke-linejoin:round;stroke-width:2px"/><path d="M10,53l-.28.28L8.17,54.83A4,4,0,0,0,7,57.66V63h9V54l-1-1" style="fill:none;stroke:#000;stroke-linejoin:round;stroke-width:2px"/><path d="M49,53l-1,1v9h9V57.66a4,4,0,0,0-1.17-2.83l-1.55-1.55L54,53" style="fill:none;stroke:#000;stroke-linejoin:round;stroke-width:2px"/><path d="M44,56c0,3-1,5-1,7H21c0-2-1-4-1-7" style="fill:none;stroke:#000;stroke-linejoin:round;stroke-width:2px"/><line style="fill:none;stroke:#000;stroke-linejoin:round;stroke-width:2px" x1="32" x2="32" y1="58" y2="63"/><path d="M32,49a11.6,11.6,0,0,0-9-4s-2,0-7,2" style="fill:none;stroke:#000;stroke-linejoin:round;stroke-width:2px"/><path d="M32,49a11.6,11.6,0,0,1,9-4s2,0,7,2" style="fill:none;stroke:#000;stroke-linejoin:round;stroke-width:2px"/><polyline points="41 45 42.89 37.43 43 37" style="fill:none;stroke:#000;stroke-linejoin:round;stroke-width:2px"/><polyline points="23 45 21.11 37.43 21 37" style="fill:none;stroke:#000;stroke-linejoin:round;stroke-width:2px"/></g></svg>