<?xml version="1.0" ?><svg viewBox="0 0 64 64" xmlns="http://www.w3.org/2000/svg"><title/><g data-name="42-Detective" id="_42-Detective"><polygon points="32 41 29 44 25 40 25 37.63 28 37 32 41" style="fill:#afb4c8"/><polygon points="39 37.63 39 40 35 44 32 41 36 37 39 37.63" style="fill:#afb4c8"/><polygon points="32 41 32 63 28 63 28 54 21.19 38.43 25 37.63 25 40 29 44 32 41" style="fill:#e9edf5"/><polygon points="39 40 39 37.63 42.81 38.43 36 54 36 63 32 63 32 41 35 44 39 40" style="fill:#e9edf5"/><polygon points="21.19 38.43 28 54 18 47 20 44 16.36 39.45 21.19 38.43" style="fill:#afb4c8"/><polygon points="47.64 39.45 44 44 46 47 36 54 42.81 38.43 47.64 39.45" style="fill:#afb4c8"/><polygon points="15 63 9 63 9 41 16.36 39.45 20 44 18 47 28 54 28 63 15 63" style="fill:#d1813b"/><polygon points="49 63 36 63 36 54 46 47 44 44 47.64 39.45 55 41 55 63 49 63" style="fill:#d1813b"/><polygon points="18.545 46.182 20 44 16.36 39.45 9 41 9 45 16.36 43.45 18.545 46.182" style="fill:#b56d3c"/><polygon points="19.818 48.273 18 51 28 58 28 54 19.818 48.273" style="fill:#b56d3c"/><polygon points="47.64 39.45 44 44 45.455 46.182 47.64 43.45 55 45 55 41 47.64 39.45" style="fill:#b56d3c"/><polygon points="44.182 48.273 36 54 36 58 46 51 44.182 48.273" style="fill:#b56d3c"/><polygon points="46 13 18 13 16 11 13 14 16 17 48 17 51 14 48 11 46 13" style="fill:#bc6829"/><path d="M22,13,25,1s2,1,7,1,7-1,7-1l3,12Z" style="fill:#d1813b"/><path d="M29.5,4.5c5,0,7-1,7-1L38.875,13H42L39,1s-2,1-7,1-7-1-7-1l-.756,3.025A25.3,25.3,0,0,0,29.5,4.5Z" style="fill:#b56d3c"/><path d="M24,17v7a4,4,0,0,1-4-4V17Z" style="fill:#eb975d"/><path d="M44,17v3a4,4,0,0,1-4,4V17Z" style="fill:#eb975d"/><path d="M36,32v5l-4,4-4-4V32l.03-.06a7.964,7.964,0,0,0,7.94,0Z" style="fill:#ffb680"/><path d="M35.97,31.94a7.964,7.964,0,0,1-7.94,0L28,32v3l.03-.06a7.964,7.964,0,0,0,7.94,0L36,35V32Z" style="fill:#eb975d"/><path d="M40,24v1a7.992,7.992,0,0,1-11.97,6.94,7.838,7.838,0,0,1-1.69-1.28A8.014,8.014,0,0,1,24,25V17H40Z" style="fill:#ffdaaa"/><rect height="3" style="fill:#ffb680" width="16" x="24" y="17"/><path d="M40,17v8a7.992,7.992,0,0,1-11.97,6.94,7.838,7.838,0,0,1-1.69-1.28A8.014,8.014,0,0,1,24,25V17" style="fill:none;stroke:#000;stroke-linejoin:round;stroke-width:2px"/><path d="M40,24a4,4,0,0,0,4-4V17" style="fill:none;stroke:#000;stroke-linejoin:round;stroke-width:2px"/><path d="M24,24a4,4,0,0,1-4-4V17" style="fill:none;stroke:#000;stroke-linejoin:round;stroke-width:2px"/><polyline points="28 32 28 37 25 37.63 21.19 38.43 16.36 39.45 9 41 9 63 15 63 28 63 32 63 36 63 49 63 55 63 55 41 47.64 39.45 42.81 38.43 39 37.63 36 37 36 32" style="fill:none;stroke:#000;stroke-linejoin:round;stroke-width:2px"/><line style="fill:none;stroke:#000;stroke-linejoin:round;stroke-width:2px" x1="15" x2="15" y1="63" y2="50"/><line style="fill:none;stroke:#000;stroke-linejoin:round;stroke-width:2px" x1="49" x2="49" y1="63" y2="50"/><polygon points="42 13 46 13 48 11 51 14 48 17 44 17 40 17 24 17 20 17 16 17 13 14 16 11 18 13 22 13 42 13" style="fill:none;stroke:#000;stroke-linejoin:round;stroke-width:2px"/><path d="M22,13l1-4,2-8s2,1,7,1,7-1,7-1l2,8,1,4" style="fill:none;stroke:#000;stroke-linejoin:round;stroke-width:2px"/><polyline points="28 37 32 41 36 37" style="fill:none;stroke:#000;stroke-linejoin:round;stroke-width:2px"/><polyline points="39 37 39 37.63 39 40 35 44 32 41 29 44 25 40 25 37.63 25 37" style="fill:none;stroke:#000;stroke-linejoin:round;stroke-width:2px"/><line style="fill:none;stroke:#000;stroke-linejoin:round;stroke-width:2px" x1="32" x2="32" y1="41" y2="63"/><line style="fill:none;stroke:#000;stroke-linejoin:round;stroke-width:2px" x1="23" x2="41" y1="9" y2="9"/><polyline points="43 38 42.81 38.43 36 54 36 63" style="fill:none;stroke:#000;stroke-linejoin:round;stroke-width:2px"/><polyline points="36 54 46 47 44 44 47.64 39.45 48 39" style="fill:none;stroke:#000;stroke-linejoin:round;stroke-width:2px"/><polyline points="21 38 21.19 38.43 28 54 28 63" style="fill:none;stroke:#000;stroke-linejoin:round;stroke-width:2px"/><polyline points="28 54 18 47 20 44 16.36 39.45 16 39" style="fill:none;stroke:#000;stroke-linejoin:round;stroke-width:2px"/><line style="fill:none;stroke:#000;stroke-linejoin:round;stroke-width:2px" x1="18" x2="24" y1="55" y2="55"/><line style="fill:none;stroke:#000;stroke-linejoin:round;stroke-width:2px" x1="40" x2="46" y1="55" y2="55"/></g></svg>