<?xml version="1.0" ?><svg viewBox="0 0 64 64" xmlns="http://www.w3.org/2000/svg"><title/><g data-name="31-Driver" id="_31-Driver"><path d="M32,41c4,0,4-4,4-4l9.02,1.9L45,39v4l6,1v4h4V63H9V48h4V44l6-1V39l-.02-.1L28,37S28,41,32,41Z" style="fill:#ff7045"/><path d="M19,42.9,28,41s0,4,4,4,4-4,4-4l9,1.9V39l.02-.1L36,37s0,4-4,4-4-4-4-4l-9.02,1.9L19,39Z" style="fill:#f92814"/><polygon points="19 43 13 44 13 48 19 47 19 43" style="fill:#f92814"/><rect height="4" style="fill:#f92814" width="4" x="51" y="48"/><rect height="4" style="fill:#f92814" width="4" x="9" y="48"/><polygon points="45 43 45 47 51 48 51 44 45 43" style="fill:#f92814"/><polygon points="19 39 19 43 13 44 13 48 9 48 9 41 18.98 38.9 19 39" style="fill:#7e8596"/><polygon points="55 41 55 48 51 48 51 44 45 43 45 39 45.02 38.9 55 41" style="fill:#7e8596"/><path d="M36.96,2.07C36.66,2.55,35,5.53,35,11H29c0-5.47-1.66-8.45-1.96-8.93a12.031,12.031,0,0,1,9.92,0Z" style="fill:#7e8596"/><polygon points="39 11 36 14 28 14 25 11 29 11 35 11 39 11" style="fill:#414952"/><path d="M35,21l3,3h4.77c-1.38,4.9-3.81,7.36-6.77,8.38A12.013,12.013,0,0,1,32,33a10.712,10.712,0,0,1-4-.72c-2.87-1.14-5.25-3.7-6.63-8.28H26l3-3Z" style="fill:#ff7045"/><path d="M26,28l3-3h6l3,3h3.129a17.111,17.111,0,0,0,1.641-4H38l-3-3H29l-3,3H21.37a16.917,16.917,0,0,0,1.755,4Z" style="fill:#f92814"/><path d="M29,11H20.17a11.982,11.982,0,0,1,6.87-8.93C27.34,2.55,29,5.53,29,11Z" style="fill:#ff7045"/><path d="M43.83,11H35c0-5.47,1.66-8.45,1.96-8.93A11.982,11.982,0,0,1,43.83,11Z" style="fill:#ff7045"/><path d="M32,1a11.9,11.9,0,0,0-4.96,1.07,9.574,9.574,0,0,1,.741,1.567A12.031,12.031,0,0,1,29.5,3.5a11.9,11.9,0,0,1,4.96,1.07A15.743,15.743,0,0,0,32.625,11H35c0-5.47,1.66-8.45,1.96-8.93A11.9,11.9,0,0,0,32,1Z" style="fill:#414952"/><path d="M24.54,4.57A15.743,15.743,0,0,1,26.375,11H29c0-5.47-1.66-8.45-1.96-8.93a12.023,12.023,0,0,0-4.683,3.806A11.956,11.956,0,0,1,24.54,4.57Z" style="fill:#f92814"/><path d="M40.609,11H43.83a11.982,11.982,0,0,0-6.87-8.93,12.261,12.261,0,0,0-1.254,3.16A12,12,0,0,1,40.609,11Z" style="fill:#f92814"/><path d="M43.83,11A12,12,0,0,1,44,13a41.145,41.145,0,0,1-1.23,11H38l-3-3H29l-3,3H21.37A37.584,37.584,0,0,1,20,13a12,12,0,0,1,.17-2H25l3,3h8l3-3Z" style="fill:#e9edf5"/><path d="M20.17,15H25l3,3h8l3-3h4.83c.046.272.078.549.106.826.04-.9.064-1.836.064-2.826a12,12,0,0,0-.17-2H39l-3,3H28l-3-3H20.17A12,12,0,0,0,20,13c0,.97.027,1.89.071,2.778C20.1,15.516,20.127,15.256,20.17,15Z" style="fill:#fff"/><path d="M36,32.38V37s0,4-4,4-4-4-4-4V32.28A10.712,10.712,0,0,0,32,33,12.013,12.013,0,0,0,36,32.38Z" style="fill:#ffb680"/><path d="M42.77,24A41.145,41.145,0,0,0,44,13a12,12,0,0,0-24,0,37.584,37.584,0,0,0,1.37,11c1.38,4.58,3.76,7.14,6.63,8.28A10.712,10.712,0,0,0,32,33a12.013,12.013,0,0,0,4-.62C38.96,31.36,41.39,28.9,42.77,24Z" style="fill:none;stroke:#000;stroke-linejoin:round;stroke-width:2px"/><polyline points="28 32 28 32.28 28 37 18.98 38.9 9 41 9 48 9 63 15 63 49 63 55 63 55 48 55 41 45.02 38.9 36 37 36 32.38 36 32" style="fill:none;stroke:#000;stroke-linejoin:round;stroke-width:2px"/><line style="fill:none;stroke:#000;stroke-linejoin:round;stroke-width:2px" x1="15" x2="15" y1="63" y2="50"/><line style="fill:none;stroke:#000;stroke-linejoin:round;stroke-width:2px" x1="49" x2="49" y1="63" y2="50"/><polyline points="20 11 20.17 11 25 11 29 11 35 11 39 11 43.83 11 44 11" style="fill:none;stroke:#000;stroke-linejoin:round;stroke-width:2px"/><polyline points="21 24 21.37 24 26 24 29 21 35 21 38 24 42.77 24 43 24" style="fill:none;stroke:#000;stroke-linejoin:round;stroke-width:2px"/><line style="fill:none;stroke:#000;stroke-linejoin:round;stroke-width:2px" x1="29" x2="35" y1="25" y2="25"/><line style="fill:none;stroke:#000;stroke-linejoin:round;stroke-width:2px" x1="29" x2="35" y1="28" y2="28"/><path d="M27,2a.222.222,0,0,1,.04.07C27.34,2.55,29,5.53,29,11" style="fill:none;stroke:#000;stroke-linejoin:round;stroke-width:2px"/><path d="M37,2a.222.222,0,0,0-.04.07C36.66,2.55,35,5.53,35,11" style="fill:none;stroke:#000;stroke-linejoin:round;stroke-width:2px"/><polyline points="25 11 28 14 36 14 39 11" style="fill:none;stroke:#000;stroke-linejoin:round;stroke-width:2px"/><path d="M28,37s0,4,4,4,4-4,4-4" style="fill:none;stroke:#000;stroke-linejoin:round;stroke-width:2px"/><polyline points="19 39 19 43 13 44 13 48 9 48" style="fill:none;stroke:#000;stroke-linejoin:round;stroke-width:2px"/><polyline points="45 39 45 43 51 44 51 48 55 48" style="fill:none;stroke:#000;stroke-linejoin:round;stroke-width:2px"/><line style="fill:none;stroke:#000;stroke-linejoin:round;stroke-width:2px" x1="32" x2="32" y1="41" y2="47"/><line style="fill:none;stroke:#000;stroke-linejoin:round;stroke-width:2px" x1="28" x2="30" y1="44" y2="44"/><line style="fill:none;stroke:#000;stroke-linejoin:round;stroke-width:2px" x1="34" x2="36" y1="44" y2="44"/></g></svg>