<?xml version="1.0" ?><svg viewBox="0 0 64 64" xmlns="http://www.w3.org/2000/svg"><title/><g data-name="65-woman" id="_65-woman"><path d="M36.44,37.56,32,42l-4.44-4.44A1.962,1.962,0,0,0,28,36.31V33l.03-.06a7.964,7.964,0,0,0,7.94,0L36,33v3.31A1.962,1.962,0,0,0,36.44,37.56Z" style="fill:#ffb680"/><path d="M36.44,41.56,32,46l-4.44-4.44A1.962,1.962,0,0,0,28,40.31V37l.03-.06a7.964,7.964,0,0,0,7.94,0L36,37v3.31A1.962,1.962,0,0,0,36.44,41.56Z" style="fill:#ffb680"/><path d="M32,37a7.954,7.954,0,0,0,3.97-1.06L36,36V33l-.03-.06a7.964,7.964,0,0,1-7.94,0L28,33v3l.03-.06A7.954,7.954,0,0,0,32,37Z" style="fill:#eb975d"/><path d="M28,36.31a1.962,1.962,0,0,1-.44,1.25L28,38Z" style="fill:#eb975d"/><path d="M36,38l.44-.44A1.962,1.962,0,0,1,36,36.31Z" style="fill:#eb975d"/><path d="M23.36,19l.55,6H23a3,3,0,0,1,0-6Z" style="fill:#ffb680"/><path d="M41,19a3,3,0,0,1,0,6h-.91l.55-6Z" style="fill:#ffb680"/><path d="M23.91,25l-.55-6-.34-3.75C24.64,13.91,28.06,13,32,13s7.36.91,8.98,2.25L40.64,19l-.55,6L40,26a8.014,8.014,0,0,1-2.34,5.66,7.838,7.838,0,0,1-1.69,1.28A8,8,0,0,1,24,26Z" style="fill:#ffdaaa"/><path d="M32,16c3.757,0,7.023.833,8.724,2.071l.256-2.821C39.36,13.91,35.94,13,32,13s-7.36.91-8.98,2.25l.256,2.821C24.977,16.833,28.243,16,32,16Z" style="fill:#ffb680"/><path d="M32,42l-3,3-4-4V38.55l1.33-.27a1.993,1.993,0,0,0,1.23-.72Z" style="fill:#e9edf5"/><path d="M39,38.55V41l-4,4-3-3,4.44-4.44a1.993,1.993,0,0,0,1.23.72Z" style="fill:#e9edf5"/><path d="M47,63H13V44.25a3.994,3.994,0,0,1,3.18-3.92L25,38.55V41l4,4,3-3,3,3,4-4V38.55l8.82,1.78A3.994,3.994,0,0,1,51,44.25V63Z" style="fill:#fc979e"/><path d="M47.82,40.33,39,38.55V41l-4,4-3-3-3,3-4-4V38.55l-8.82,1.78A3.994,3.994,0,0,0,13,44.25v4a3.994,3.994,0,0,1,3.18-3.92L25,42.55V45l4,4,3-3,3,3,4-4V42.55l8.82,1.78A3.994,3.994,0,0,1,51,48.25v-4A3.994,3.994,0,0,0,47.82,40.33Z" style="fill:#ff475a"/><path d="M22.01,16.79C22.14,12.47,26.57,9,32,9s9.86,3.47,9.99,7.79a2.475,2.475,0,0,0-1.01-1.54C39.36,13.91,35.94,13,32,13s-7.36.91-8.98,2.25A2.475,2.475,0,0,0,22.01,16.79Z" style="fill:#fc979e"/><path d="M23.02,15.25c.084-.069.192-.132.285-.2A10.626,10.626,0,0,1,32,11a10.626,10.626,0,0,1,8.7,4.051c.093.067.2.13.285.2a2.475,2.475,0,0,1,1.01,1.54C41.86,12.47,37.43,9,32,9s-9.86,3.47-9.99,7.79A2.475,2.475,0,0,1,23.02,15.25Z" style="fill:#ff475a"/><path d="M23,19a3,3,0,0,0,0,6h.91L24,26a7.974,7.974,0,0,0,4.03,6.94L28,33v3a19.617,19.617,0,0,1-13-5,2.938,2.938,0,0,0,3-3V15a14,14,0,0,1,28,0V28a2.938,2.938,0,0,0,3,3,19.617,19.617,0,0,1-13,5V33l-.03-.06a7.838,7.838,0,0,0,1.69-1.28A8.014,8.014,0,0,0,40,26l.09-1H41a3,3,0,0,0,0-6h-.36l.34-3.75a2.475,2.475,0,0,1,1.01,1.54C41.86,12.47,37.43,9,32,9s-9.86,3.47-9.99,7.79a2.475,2.475,0,0,1,1.01-1.54L23.36,19Z" style="fill:#414952"/><path d="M23,19a3,3,0,0,0,0,6h.91L24,26a7.974,7.974,0,0,0,4.03,6.94L28,33v3a19.617,19.617,0,0,1-13-5,2.938,2.938,0,0,0,3-3V15a14,14,0,0,1,28,0V28a2.938,2.938,0,0,0,3,3,19.617,19.617,0,0,1-13,5V33l-.03-.06a7.838,7.838,0,0,0,1.69-1.28A8.014,8.014,0,0,0,40,26l.09-1H41a3,3,0,0,0,0-6h-.36l.34-3.75a2.475,2.475,0,0,1,1.01,1.54C41.86,12.47,37.43,9,32,9s-9.86,3.47-9.99,7.79a2.475,2.475,0,0,1,1.01-1.54L23.36,19Z" style="fill:#414952"/><path d="M32,4A14,14,0,0,1,46,18V15a14,14,0,0,0-28,0v3A14,14,0,0,1,32,4Z" style="fill:#636978"/><path d="M23,15l.02.25L23.36,19l.55,6L24,26a7.992,7.992,0,0,0,11.97,6.94,7.838,7.838,0,0,0,1.69-1.28A8.014,8.014,0,0,0,40,26l.09-1,.55-6,.34-3.75L41,15" style="fill:none;stroke:#000;stroke-linejoin:round;stroke-width:2px"/><path d="M28,33v3.31a1.962,1.962,0,0,1-.44,1.25,1.993,1.993,0,0,1-1.23.72L25,38.55l-8.82,1.78A3.994,3.994,0,0,0,13,44.25V63H51V44.25a3.994,3.994,0,0,0-3.18-3.92L39,38.55l-1.33-.27a1.993,1.993,0,0,1-1.23-.72A1.962,1.962,0,0,1,36,36.31V33" style="fill:none;stroke:#000;stroke-linejoin:round;stroke-width:2px"/><path d="M28,36a19.617,19.617,0,0,1-13-5,2.938,2.938,0,0,0,3-3V15a14,14,0,0,1,28,0V28a2.938,2.938,0,0,0,3,3,19.617,19.617,0,0,1-13,5" style="fill:none;stroke:#000;stroke-linejoin:round;stroke-width:2px"/><path d="M40,19h1a3,3,0,0,1,0,6H40" style="fill:none;stroke:#000;stroke-linejoin:round;stroke-width:2px"/><path d="M24,19H23a3,3,0,0,0,0,6h1" style="fill:none;stroke:#000;stroke-linejoin:round;stroke-width:2px"/><path d="M19,48v5s-2,3-2,10" style="fill:none;stroke:#000;stroke-linejoin:round;stroke-width:2px"/><path d="M45,48v5s2,3,2,10" style="fill:none;stroke:#000;stroke-linejoin:round;stroke-width:2px"/><path d="M42,17a1.477,1.477,0,0,0-.01-.21,2.475,2.475,0,0,0-1.01-1.54C39.36,13.91,35.94,13,32,13s-7.36.91-8.98,2.25a2.475,2.475,0,0,0-1.01,1.54A1.477,1.477,0,0,0,22,17" style="fill:none;stroke:#000;stroke-linejoin:round;stroke-width:2px"/><path d="M22.01,16.79C22.14,12.47,26.57,9,32,9s9.86,3.47,9.99,7.79" style="fill:none;stroke:#000;stroke-linejoin:round;stroke-width:2px"/><polyline points="27 37 27.56 37.56 32 42 36.44 37.56 37 37" style="fill:none;stroke:#000;stroke-linejoin:round;stroke-width:2px"/><polyline points="32 42 35 45 39 41 39 38.55 39 38" style="fill:none;stroke:#000;stroke-linejoin:round;stroke-width:2px"/><polyline points="25 38 25 38.55 25 41 29 45 32 42 32 47" style="fill:none;stroke:#000;stroke-linejoin:round;stroke-width:2px"/></g></svg>