<svg xmlns="http://www.w3.org/2000/svg" xmlns:xlink="http://www.w3.org/1999/xlink" width="188" height="107" viewBox="0 0 188 107">
    <defs>
        <rect id="a" width="460" height="144" rx="8"/>
    </defs>
    <g fill="none" fill-rule="evenodd" transform="translate(-254 -37)">
        <mask id="b" fill="#fff">
            <use xlink:href="#a"/>
        </mask>
        <g fill-rule="nonzero" mask="url(#b)">
            <g fill="#000" opacity=".06">
                <path d="M419.6 168.6c0 1.1.9 2.1 2.1 2.1 1.1 0 2.1-.9 2.1-2.1V72.2c0-1.1-.9-2.1-2.1-2.1-1.1 0-2.1.9-2.1 2.1M272.7 168.6V96.1c0-1.1.9-2.1 2.1-2.1 1.1 0 2.1.9 2.1 2.1v72.5c0 1.1-.9 2.1-2.1 2.1-1.2-.1-2.1-1-2.1-2.1zM303 169.1v-52.7c0-1.1.9-2.1 2.1-2.1 1.1 0 2.1.9 2.1 2.1v52.7c0 1.1-.9 2.1-2.1 2.1-1.2-.1-2.1-1-2.1-2.1z"/>
                <path d="M281.5 108.8h47.4v18.5h-47.4z"/>
                <path d="M305.2 108.8h23.7v18.5h-23.7z" opacity=".1"/>
                <path d="M329.8 110.1h-49.2c-.8 0-1.5-.7-1.5-1.5s.7-1.5 1.5-1.5h49.2c.8 0 1.5.7 1.5 1.5s-.7 1.5-1.5 1.5zM329.8 128.8h-49.2c-.8 0-1.5-.7-1.5-1.5s.7-1.5 1.5-1.5h49.2c.8 0 1.5.7 1.5 1.5s-.7 1.5-1.5 1.5z"/>
                <path d="M329.7 128.8h-24.3c-.8 0-1.5-.7-1.5-1.5s.7-1.5 1.5-1.5h24.3c.8 0 1.5.7 1.5 1.5.1.8-.6 1.5-1.5 1.5zM329.8 110.1h-24.3c-.8 0-1.5-.7-1.5-1.5s.7-1.5 1.5-1.5h24.3c.8 0 1.5.7 1.5 1.5s-.7 1.5-1.5 1.5z"/>
                <g>
                    <path d="M416.376 90.46l-38.62 10.795-5.896-21.091 38.62-10.795z"/>
                    <path d="M397.121 95.842l-19.358 5.41-5.895-21.09 19.358-5.412z" opacity=".1"/>
                    <path d="M371.5 81.4l40-11.2c.7-.2 1.1-.9.9-1.6-.2-.7-.9-1.1-1.6-.9l-40 11.2c-.7.2-1.1.9-.9 1.6.2.7.9 1.1 1.6.9zM377.4 102.7l40-11.2c.7-.2 1.1-.9.9-1.6-.2-.7-.9-1.1-1.6-.9l-40 11.2c-.7.2-1.1.9-.9 1.6.2.7.9 1.1 1.6.9z"/>
                    <path d="M377.4 102.7l19.8-5.5c.7-.2 1.1-.9.9-1.6-.2-.7-.9-1.1-1.6-.9l-19.8 5.5c-.7.2-1.1.9-.9 1.6.2.7.9 1.1 1.6.9zM371.5 81.4l19.8-5.5c.7-.2 1.1-.9.9-1.6-.2-.7-.9-1.1-1.6-.9l-19.8 5.5c-.7.2-1.1.9-.9 1.6.2.7.9 1.1 1.6.9z"/>
                </g>
                <g>
                    <path d="M317.984 69.408l38.62 10.795-5.895 21.091L312.09 90.5z"/>
                    <path d="M337.313 74.81l19.358 5.411-5.896 21.092-19.358-5.41z" opacity=".1"/>
                    <path d="M357.1 81.4l-40-11.2c-.7-.2-1.1-.9-.9-1.6.2-.7.9-1.1 1.6-.9l40 11.2c.7.2 1.1.9.9 1.6-.2.7-1 1.1-1.6.9zM351.1 102.7l-40-11.2c-.7-.2-1.1-.9-.9-1.6.2-.7.9-1.1 1.6-.9l40 11.2c.7.2 1.1.9.9 1.6-.2.7-.9 1.1-1.6.9z"/>
                    <path d="M351.1 102.7l-19.8-5.5c-.7-.2-1.1-.9-.9-1.6.2-.7.9-1.1 1.6-.9l19.8 5.5c.7.2 1.1.9.9 1.6-.2.7-.9 1.1-1.6.9zM357.1 81.4l-19.8-5.5c-.7-.2-1.1-.9-.9-1.6.2-.7.9-1.1 1.6-.9l19.8 5.5c.7.2 1.1.9.9 1.6-.2.7-1 1.1-1.6.9z"/>
                </g>
                <g>
                    <path d="M272.7 98.3V80.6c0-1.1.9-2.1 2.1-2.1 1.1 0 2.1.9 2.1 2.1v17.7c0 1.1-.9 2.1-2.1 2.1-1.2 0-2.1-1-2.1-2.1z"/>
                    <path d="M255.7 86.8h38c.7 0 1.2-.5 1.2-1.2s-.5-1.2-1.2-1.2h-38c-.7 0-1.2.5-1.2 1.2.1.7.6 1.2 1.2 1.2zM255.7 83.7h38c.7 0 1.2-.5 1.2-1.2s-.5-1.2-1.2-1.2h-38c-.7 0-1.2.5-1.2 1.2.1.7.6 1.2 1.2 1.2z"/>
                </g>
                <g>
                    <path d="M400.3 74V56.3c0-1.1-.9-2.1-2.1-2.1-1.1 0-2.1.9-2.1 2.1V74c0 1.1.9 2.1 2.1 2.1 1.2-.1 2.1-1 2.1-2.1z"/>
                    <path d="M438.9 92.4l-45.5-23c-1-.5-1.4-1.7-.9-2.8.5-1 1.7-1.4 2.8-.9l45.5 23c1 .5 1.4 1.7.9 2.8-.6 1-1.8 1.4-2.8.9zM370.4 64.3l56.5-8.7c.7-.1 1.1-.7 1-1.4-.1-.7-.7-1.1-1.4-1L370 62c-.7.1-1.1.7-1 1.4.1.6.7 1 1.4.9z"/>
                </g>
                <g>
                    <path d="M365.3 82.8c-27.3 0-49.4 22.1-49.4 49.4 0 27.3 22.1 49.4 49.4 49.4 27.3 0 49.4-22.1 49.4-49.4.1-27.3-22-49.4-49.4-49.4zm0 65.5c-8.9 0-16.1-7.2-16.1-16.1 0-8.9 7.2-16.1 16.1-16.1 8.9 0 16.1 7.2 16.1 16.1 0 8.9-7.2 16.1-16.1 16.1z"/>
                </g>
            </g>
            <g transform="translate(291 37)">
                <path fill="#624940" d="M84.6 51.5V35.7h-4.4v11.5c0 2.4 2 4.3 4.4 4.3zM52.8 51V35.1h-4.4v11.5c0 2.4 1.9 4.4 4.4 4.4z"/>
                <path fill="#624940" d="M67.3 3.4c12.3 0 22.3 8.5 22.6 19V45h-2.8c-2 0-3.6-1.6-3.6-3.6V30.2c0-3.1-2.5-5.7-5.7-5.7H66.4c-1.6 0-2.8-1.3-2.8-2.8v-3.4c0-.9-1.1-1.3-1.7-.7l-3.3 3.3c-2.3 2.3-5.4 3.6-8.7 3.6h-3.6c-.9 0-1.6-.7-1.6-1.6 0-10.8 10.2-19.5 22.6-19.5z"/>
                <path fill="#573F40" d="M44.7 21.4h13.7V43H44.7z"/>
                <path fill="#2AA578" d="M62.6 72.2V58.3H41.7v11c0 1.6 1.3 2.9 2.9 2.9h18z"/>
                <path fill="#EBBA87" d="M22.4 58.3h19.3v11H22.4z"/>
                <path fill="#EBBA87" d="M22.8 31.9h-11v26.4c0 6.1 4.9 11 11 11V31.9zM49 97.2v11h29.9c6.1 0 11-4.9 11-11H49z"/>
                <path fill="#45AD7F" d="M79.2 58.3h-21c-5.9 0-10.7 4.8-10.7 10.7v28.2h42.3V69c.1-5.9-4.7-10.7-10.6-10.7z"/>
                <path fill="#2AA578" d="M58.2 58.3h8v38.9H47.6V69c0-5.9 4.7-10.7 10.6-10.7z"/>
                <path fill="#EBBA87" d="M78.9 78.2h11v19.2h-11z"/>
                <path fill="#E49E75" d="M16.6 34.6c3.4 0 6.2-2.8 6.2-6.2v-2.1H10.4v2.1c0 3.4 2.8 6.2 6.2 6.2z"/>
                <path fill="#626A89" d="M10.3 58.3h34.3c2.1 0 3.7-1.7 3.7-3.7V28.5c0-2.1-1.7-3.7-3.7-3.7H10.3c-2.1 0-3.7 1.7-3.7 3.7v26.1c0 2.1 1.7 3.7 3.7 3.7z"/>
                <path fill="#444C69" d="M5 58.3h4c2.7 0 4.9-2.2 4.9-4.9V29.7c0-2.7-2.2-4.9-4.9-4.9H5C2.3 24.8.1 27 .1 29.7v23.8c.1 2.7 2.3 4.8 4.9 4.8z"/>
                <ellipse cx="39.8" cy="41.6" fill="#444C69" rx="5.5" ry="8"/>
                <ellipse cx="39.8" cy="41.6" fill="#33304F" rx="1.9" ry="2.8"/>
                <ellipse cx="22.5" cy="41.6" fill="#444C69" rx="5.5" ry="8"/>
                <ellipse cx="22.5" cy="41.6" fill="#33304F" rx="1.9" ry="2.8"/>
                <path fill="#E49E75" d="M60.1 61.1h11.5c1 0 1.8-.8 1.8-1.8v-7.8h-15v7.8c0 1 .8 1.8 1.7 1.8z"/>
                <path fill="#EBBA87" d="M65.9 54.6c10.4 0 18.8-8.4 18.8-18.8v-9C84.7 16.4 76.3 8 65.9 8s-18.8 8.4-18.8 18.8v9c0 10.4 8.4 18.8 18.8 18.8z"/>
                <path fill="#624940" d="M79 9.1l5.9-5.9c1.3 1.3 1.3 3.4 0 4.8l-1.1 1.1c-1.4 1.3-3.5 1.3-4.8 0z"/>
                <path fill="#624940" d="M78.6 8.7V.4C80.5.4 82 1.9 82 3.8v1.6c0 1.8-1.5 3.3-3.4 3.3z"/>
                <path fill="#EBBA87" d="M15.9 20.4c.6-.1 1.2.2 1.6.6.2.2.5.2.7 0 .3-.4.8-.6 1.3-.6s1 .2 1.3.6c.2.2.5.2.7 0 .3-.4.8-.6 1.3-.6s1 .2 1.3.6c.2.2.5.2.7 0 .3-.4.8-.6 1.3-.6.9 0 1.7.8 1.7 1.7v3.4c0 .9-.8 1.7-1.7 1.7-.8 0-1.5-.5-1.7-1.3-.2.7-.9 1.3-1.7 1.3-.8 0-1.5-.5-1.7-1.3-.2.7-.9 1.3-1.7 1.3-.8 0-1.5-.5-1.7-1.3-.2.8-1 1.4-1.9 1.3-.9-.1-1.5-.9-1.5-1.8v-3.2c.2-.9.8-1.7 1.7-1.8z"/>
                <circle cx="31.3" cy="30.8" r="1" fill="#44B869"/>
                <path fill="#EBBA87" d="M33.5 96c.1-.9.9-1.6 1.8-1.6H46.7c.2 0 .3-.3.2-.4l-3.1-3.1c-.6-.6-.7-1.7-.2-2.4.7-.8 1.9-.8 2.6-.1l7.3 7.3c.1.1.2.2.2.3 1.5 1.3 2.5 3.2 2.5 5.3 0 3.8-3.1 6.9-6.9 6.9H47 41.8c-.9 0-1.7-.6-1.8-1.5-.1-.7.2-1.4.8-1.7.2-.1.2-.4 0-.5-.5-.3-.8-.8-.8-1.5 0-.6.3-1.2.8-1.5.2-.1.2-.4 0-.5-.5-.3-.8-.8-.8-1.5 0-.5.2-.9.5-1.2.2-.2 0-.5-.2-.5h-5.1c-1 .1-1.8-.8-1.7-1.8zM42.2 30.8c0 2.2 1.8 4 4 4h1.9c2.2 0 4-1.8 4-4s-1.8-4-4-4h-1.9c-2.3.1-4 1.9-4 4z"/>
                <path fill="#E49E75" d="M44.4 30.7v.3c0 .8.7 1.5 1.5 1.5h.3c.8 0 1.5-.7 1.5-1.5v-.3c0-.8-.7-1.5-1.5-1.5h-.3c-.8 0-1.5.7-1.5 1.5z"/>
                <path fill="#EBBA87" d="M90.1 30.8c0-2.2-1.8-4-4-4h-1.9c-2.2 0-4 1.8-4 4s1.8 4 4 4h1.9c2.2 0 4-1.8 4-4z"/>
                <path fill="#E49E75" d="M87.8 31v-.3c0-.8-.7-1.5-1.5-1.5H86c-.8 0-1.5.7-1.5 1.5v.3c0 .8.7 1.5 1.5 1.5h.3c.9 0 1.5-.7 1.5-1.5z"/>
                <path fill="#624940" d="M65.9 4.5c10.5 0 19 7.2 19.3 16.3v19.4h-2.4c-1.7 0-3.1-1.4-3.1-3.1v-9.6c0-2.7-2.2-4.8-4.8-4.8h-9.7c-1.3 0-2.4-1.1-2.4-2.4v-2.9c0-.8-.9-1.1-1.4-.6l-2.8 2.8c-2 2-4.6 3.1-7.4 3.1H48c-.8 0-1.4-.6-1.4-1.4 0-9.3 8.6-16.8 19.3-16.8z"/>
                <path fill="#626A89" d="M54.9 96.7h3.4v12h-3.4z"/>
                <circle cx="56.6" cy="102.7" r="3" fill="#626A89"/>
                <path fill="#735347" d="M62.8 29.5c0-.5.4-.9.9-.9h5.2c.5 0 .9.4.9.9s-.4.9-.9.9h-5.2c-.5.1-.9-.4-.9-.9zM50.1 29.5c0-.5.4-.9.9-.9h5.2c.5 0 .9.4.9.9s-.4.9-.9.9H51c-.5.1-.9-.4-.9-.9z"/>
                <circle cx="53.6" cy="35.5" r="1.1" fill="#41383E"/>
                <circle cx="66.3" cy="35.5" r="1.1" fill="#41383E"/>
                <path fill="#ED8262" d="M56.5 44.2c-.3 0-.5.3-.4.6.6 1.9 2.4 3.3 4.5 3.3s3.9-1.4 4.5-3.3c.1-.3-.1-.6-.4-.6h-8.2z"/>
            </g>
        </g>
    </g>
</svg>
