<svg xmlns="http://www.w3.org/2000/svg" xmlns:xlink="http://www.w3.org/1999/xlink" width="222" height="91" viewBox="0 0 222 91">
    <defs>
        <path id="a" d="M8 0h206a8 8 0 0 1 8 8v128a8 8 0 0 1-8 8H8a8 8 0 0 1-8-8V8a8 8 0 0 1 8-8z"/>
    </defs>
    <g fill="none" fill-rule="evenodd" transform="translate(0 -53)">
        <mask id="b" fill="#fff">
            <use xlink:href="#a"/>
        </mask>
        <g mask="url(#b)">
            <g opacity=".07">
                <path fill="#000" fill-rule="nonzero" d="M258.052 106.825c-.078.157-.078.392-.157.549 0-.079-.078-.157-.078-.236.235-3.452-1.175-7.296-4.151-10.278-1.645-1.648-3.525-2.668-5.483-3.295h19.19c-2.428-3.61-7.441-6.042-12.61-6.042-3.447 0-6.659.628-9.087 2.275l12.063-12.24c-3.838-.784-7.833.785-11.123 4.08-2.115 2.119-3.603 4.551-4.073 7.14-.47-2.51-1.959-5.021-4.073-7.14-3.29-3.295-7.285-4.943-11.123-4.08l12.063 12.084c-2.429-1.648-5.64-2.119-9.087-2.119-5.248 0-9.713 2.51-12.22 6.042h19.035l-.392.078c-1.88.706-3.76 1.805-5.326 3.374-2.428 2.432-3.76 4.865-4.152 7.69l-5.17 5.962H187.32v29.894h70.732v-33.738zM118.546 79.598H93.637a1.573 1.573 0 0 1-1.566-1.569v-.157c0-.863-.705-1.569-1.567-1.569H63.56a1.74 1.74 0 0 0-1.724 1.726 1.74 1.74 0 0 0 1.724 1.726h3.29c.861 0 1.566.707 1.566 1.57v.157c0 .863.705 1.569 1.567 1.569H81.81c.861 0 1.566.706 1.566 1.569s.705 1.57 1.567 1.57h23.812c.862 0 1.567-.707 1.567-1.57 0-.863.705-1.57 1.566-1.57h6.893a1.74 1.74 0 0 0 1.724-1.725c-.235-.942-1.019-1.727-1.959-1.727zM54.316 154.686h-180.238v-20.243H34.107c11.122 0 20.209 9.102 20.209 20.243z"/>
                <path fill="#000" fill-rule="nonzero" d="M91.052 154.686h161.36v-20.243h-141.15c-11.123 0-20.21 9.102-20.21 20.243z"/>
                <path d="M111.497 137.503c-21.384-18.281-52.951-18.281-74.336 0-2.506-2.903-4.934-5.806-7.44-8.71 25.691-21.968 63.525-21.968 89.217 0-2.428 2.904-4.935 5.807-7.441 8.71z"/>
                <path d="M44.603 129.5c-.784.47-1.645.942-2.428 1.49-.862-1.255-1.645-2.588-2.507-3.844.862-.55 1.723-1.098 2.663-1.57.784 1.335 1.567 2.669 2.272 3.924zM56.744 124.243c-.862.314-1.802.55-2.663.863-.549-1.412-1.019-2.903-1.567-4.315l2.82-.942c.47 1.491.94 2.903 1.41 4.394zM69.512 121.81c-.94.08-1.802.158-2.742.315-.156-1.491-.391-3.06-.548-4.551 1.018-.157 1.958-.236 2.976-.314.079 1.49.157 2.982.314 4.55zM82.436 122.125c-.94-.157-1.801-.236-2.741-.314.156-1.491.313-3.06.391-4.551 1.019.078 1.959.235 2.977.314-.157 1.57-.392 3.06-.627 4.55zM95.126 125.342c-.862-.314-1.724-.628-2.664-.942.47-1.49.94-2.903 1.41-4.394.94.314 1.88.628 2.82 1.02a95.431 95.431 0 0 0-1.566 4.316zM106.953 131.383c-.783-.55-1.644-1.02-2.428-1.49.784-1.335 1.567-2.59 2.35-3.924l2.585 1.648c-.862 1.177-1.645 2.432-2.507 3.766z"/>
                <g fill-rule="nonzero">
                    <path fill="#000" d="M111.497 137.503c-21.384-18.281-52.951-18.281-74.336 0-2.506-2.903-4.934-5.806-7.44-8.71 25.691-21.968 63.525-21.968 89.217 0-2.428 2.904-4.935 5.807-7.441 8.71z"/>
                    <path fill="#70BDB9" d="M44.603 129.5c-.784.47-1.645.942-2.428 1.49-.862-1.255-1.645-2.588-2.507-3.844.862-.55 1.723-1.098 2.663-1.57.784 1.335 1.567 2.669 2.272 3.924zM56.744 124.243c-.862.314-1.802.55-2.663.863-.549-1.412-1.019-2.903-1.567-4.315l2.82-.942c.47 1.491.94 2.903 1.41 4.394zM69.512 121.81c-.94.08-1.802.158-2.742.315-.156-1.491-.391-3.06-.548-4.551 1.018-.157 1.958-.236 2.976-.314.079 1.49.157 2.982.314 4.55zM82.436 122.125c-.94-.157-1.801-.236-2.741-.314.156-1.491.313-3.06.391-4.551 1.019.078 1.959.235 2.977.314-.157 1.57-.392 3.06-.627 4.55zM95.126 125.342c-.862-.314-1.724-.628-2.664-.942.47-1.49.94-2.903 1.41-4.394.94.314 1.88.628 2.82 1.02a95.431 95.431 0 0 0-1.566 4.316zM106.953 131.383c-.783-.55-1.644-1.02-2.428-1.49.784-1.335 1.567-2.59 2.35-3.924l2.585 1.648c-.862 1.177-1.645 2.432-2.507 3.766z"/>
                </g>
                <g>
                    <path d="M111.497 137.503c-21.384-18.281-52.951-18.281-74.336 0-2.506-2.903-4.934-5.806-7.44-8.71 25.691-21.968 63.525-21.968 89.217 0-2.428 2.904-4.935 5.807-7.441 8.71z"/>
                    <path d="M44.603 129.5c-.784.47-1.645.942-2.428 1.49-.862-1.255-1.645-2.588-2.507-3.844.862-.55 1.723-1.098 2.663-1.57.784 1.335 1.567 2.669 2.272 3.924zM56.744 124.243c-.862.314-1.802.55-2.663.863-.549-1.412-1.019-2.903-1.567-4.315l2.82-.942c.47 1.491.94 2.903 1.41 4.394zM69.512 121.81c-.94.08-1.802.158-2.742.315-.156-1.491-.391-3.06-.548-4.551 1.018-.157 1.958-.236 2.976-.314.079 1.49.157 2.982.314 4.55zM82.436 122.125c-.94-.157-1.801-.236-2.741-.314.156-1.491.313-3.06.391-4.551 1.019.078 1.959.235 2.977.314-.157 1.57-.392 3.06-.627 4.55zM95.126 125.342c-.862-.314-1.724-.628-2.664-.942.47-1.49.94-2.903 1.41-4.394.94.314 1.88.628 2.82 1.02a95.431 95.431 0 0 0-1.566 4.316zM106.953 131.383c-.783-.55-1.644-1.02-2.428-1.49.784-1.335 1.567-2.59 2.35-3.924l2.585 1.648c-.862 1.177-1.645 2.432-2.507 3.766z"/>
                </g>
                <path fill="#000" fill-rule="nonzero" d="M-27.07 125.89c-1.722.628-3.446 1.648-4.856 3.06-1.723 1.727-2.82 3.453-3.368 5.336H-8.27c-.548-1.961-1.723-3.844-3.368-5.492-1.488-1.49-3.212-2.432-5.013-2.982H.895c-2.194-3.295-6.815-5.492-11.515-5.492-3.133 0-6.031.55-8.303 2.118l11.045-11.141c-3.525-.785-7.128.706-10.105 3.688-1.958 1.961-3.29 4.158-3.76 6.512-.47-2.354-1.801-4.55-3.76-6.512-2.976-2.982-6.58-4.473-10.104-3.767l11.044 11.064c-2.271-1.491-5.091-1.884-8.303-1.884-4.778 0-8.93 2.276-11.122 5.493h17.31-.391z"/>
            </g>
            <g transform="translate(137.189 53)">
                <path fill="#F2CF31" fill-rule="nonzero" d="M58.904 75.715c-2.428.628-5.013-.784-5.64-3.295l-6.501-24.794c-.627-2.432.783-5.021 3.29-5.65 2.428-.627 5.013.786 5.64 3.296l6.501 24.794c.627 2.432-.862 5.022-3.29 5.65z"/>
                <path fill="#F2CF31" fill-rule="nonzero" d="M13.943 45.194a7.36 7.36 0 0 1 7.363-7.376h26.789a7.36 7.36 0 0 1 7.363 7.376H13.943z"/>
                <path fill="#F2CF31" fill-rule="nonzero" d="M25.066 41.506L38.46 64.81c2.35 4.08-.627 9.18-5.326 9.18H6.266c-4.7 0-7.676-5.1-5.326-9.18l13.394-23.303c2.507-4.08 8.382-4.08 10.732 0z"/>
                <path fill="#F2CF31" fill-rule="nonzero" d="M52.011 98.626H17.076l2.898-55.55c0-2.825 2.272-5.1 5.092-5.1H44.02a5.086 5.086 0 0 1 5.092 5.1l2.898 55.55z"/>
                <path fill="#514042" fill-rule="nonzero" d="M41.437 32.326V12.083l7.05.392-.784 13.574c-.078 3.531-2.82 6.277-6.266 6.277zM28.355 32.326V12.083l-7.52.55 1.332 13.495c-.078 3.452 2.742 6.198 6.188 6.198z"/>
                <ellipse cx="34.779" cy="40.015" fill="#DDB888" fill-rule="nonzero" rx="10.575" ry="2.668"/>
                <path fill="#D09C76" fill-rule="nonzero" d="M29.217 29.972h11.28v9.18h-11.28z"/>
                <ellipse cx="34.779" cy="39.074" fill="#D09C76" fill-rule="nonzero" rx="5.64" ry="2.432"/>
                <path fill="#DDB888" fill-rule="nonzero" d="M32.82 41.585s-1.096-.079-2.428-.707c-1.253-.627-1.253-1.49-1.253-1.49V32.64h3.603v8.945h.078z"/>
                <path fill="#D09C76" fill-rule="nonzero" d="M34.857 35.857A11.41 11.41 0 0 1 23.42 24.402v-7.376A11.41 11.41 0 0 1 34.857 5.571a11.41 11.41 0 0 1 11.436 11.455v7.376c0 6.276-5.17 11.455-11.436 11.455z"/>
                <path fill="#DDB888" fill-rule="nonzero" d="M35.17 34.837h-.626c-5.64 0-10.262-4.63-10.262-10.279v-5.413c0-5.65 4.622-10.279 10.262-10.279h.626c5.64 0 10.261 4.63 10.261 10.279v5.413c0 5.65-4.621 10.279-10.26 10.279z"/>
                <path fill="#514042" fill-rule="nonzero" d="M33.134.235h2.976c6.815 0 12.298 5.493 12.298 12.319 0 .235-.157.392-.392.392H21.15c-.235 0-.392-.157-.392-.392C20.757 5.728 26.32.235 33.134.235z"/>
                <path fill="#413B40" fill-rule="nonzero" d="M36.893 20.478c0-.392.314-.627.627-.627h3.76c.392 0 .627.314.627.627a.618.618 0 0 1-.627.628h-3.76c-.313.079-.627-.235-.627-.628zM27.024 20.478c0-.392.313-.627.626-.627h3.76c.392 0 .627.314.627.627a.618.618 0 0 1-.627.628h-3.76c-.313.079-.626-.235-.626-.628z"/>
                <path fill="#D48064" fill-rule="nonzero" d="M32.35 28.09c0-.393.314-.628.627-.628h3.76c.391 0 .626.313.626.627a.618.618 0 0 1-.626.628h-3.76c-.392.078-.627-.235-.627-.628z"/>
                <ellipse cx="29.53" cy="23.146" fill="#413B40" fill-rule="nonzero" rx="1" ry="1"/>
                <ellipse cx="39.4" cy="23.146" fill="#413B40" fill-rule="nonzero" rx="1" ry="1"/>
                <ellipse cx="46.136" cy="21.185" fill="#DDB888" fill-rule="nonzero" rx="2.742" ry="2.746"/>
                <ellipse cx="23.734" cy="21.185" fill="#DDB888" fill-rule="nonzero" rx="2.742" ry="2.746"/>
                <path fill="#514042" fill-rule="nonzero" d="M44.1 18.046v-4.315h2.35V20.4c-1.332 0-2.35-1.02-2.35-2.354zM25.614 18.282v-4.316h-2.35v6.67c1.253-.08 2.35-1.1 2.35-2.354z"/>
                <path fill="#F2CF31" fill-rule="nonzero" d="M13.394 67.32h8.46v6.12h-8.46z"/>
                <path fill="#9E7B51" fill-rule="nonzero" d="M22.324 73.205a3.764 3.764 0 0 1-3.76-3.767v-1.333c0-2.04 1.645-3.767 3.76-3.767a3.764 3.764 0 0 1 3.76 3.767v1.333c0 2.119-1.645 3.767-3.76 3.767z"/>
                <path fill="#E19D3B" fill-rule="nonzero" d="M60.706 68.575c.705-.157 1.096-.863.94-1.569l-6.188-23.46c-.157-.706-.862-1.098-1.567-.941-.705.157-1.097.863-.94 1.569l6.188 23.46c.157.706.862 1.098 1.567.941z"/>
                <path fill="#695155" fill-rule="nonzero" d="M49.896 58.454c-1.096.078-2.036-.863-2.115-1.962v-.235c-.078-1.099.862-2.04 1.959-2.119 1.096-.078 2.036.864 2.114 1.962v.235c0 1.099-.861 2.04-1.958 2.119z"/>
                <path stroke="#BEB0A3" stroke-linecap="round" stroke-width="3.278" d="M49.896 56.1l27.416-14.908"/>
                <path fill="#F2CF31" fill-rule="nonzero" d="M55.38 75.01c-2.116-1.413-2.664-4.316-1.254-6.435l9.635-14.201c1.41-2.119 4.308-2.668 6.423-1.256 2.115 1.413 2.663 4.316 1.253 6.434l-9.635 14.202c-1.488 2.118-4.308 2.668-6.423 1.255z"/>
                <path fill="#9E7B51" fill-rule="nonzero" d="M65.562 59.945c-1.566-1.099-2.036-3.296-.94-4.865 1.097-1.57 3.29-2.04 4.857-.942 1.566 1.099 2.036 3.296.94 4.865-1.097 1.648-3.29 2.04-4.857.942z"/>
                <path fill="#514042" fill-rule="nonzero" d="M63.839 62.926c-.94-.628-1.253-1.883-.627-2.824l12.69-19.851c.626-.942 1.88-1.256 2.82-.628s1.253 1.883.626 2.825l-12.69 19.85c-.626.942-1.88 1.256-2.819.628z"/>
                <g fill="#D09C76" fill-rule="nonzero">
                    <path d="M75.902 49.195c.705.471.861 1.413.391 2.119l-4.778 7.061c-.47.707-1.41.863-2.115.393-.705-.471-.861-1.413-.391-2.119l4.778-7.061c.47-.628 1.41-.863 2.115-.393z"/>
                    <path d="M68.46 49.195c.47-.706 1.41-.863 2.115-.392l3.76 2.59c.705.47.862 1.412.392 2.118s-1.41.863-2.115.392l-3.76-2.59c-.627-.47-.862-1.411-.392-2.118z"/>
                    <path d="M70.027 46.998c.47-.706 1.41-.863 2.115-.392l3.76 2.59c.705.47.861 1.412.391 2.118s-1.41.863-2.114.392l-3.76-2.59c-.705-.47-.862-1.411-.392-2.118zM66.816 51.706c.47-.706 1.41-.863 2.114-.392l3.76 2.59c.705.47.862 1.411.392 2.118-.47.706-1.41.863-2.115.392l-3.76-2.59c-.705-.47-.94-1.412-.391-2.118z"/>
                    <path d="M65.17 54.06c.47-.706 1.41-.863 2.115-.392l3.76 2.589c.705.47.862 1.412.392 2.118-.47.707-1.41.863-2.115.393l-3.76-2.59c-.705-.47-.861-1.412-.391-2.118z"/>
                </g>
                <path fill="#E19D3B" fill-rule="nonzero" d="M1.41 66.614C.783 66.3.627 65.515.94 64.888l13.316-23.146c.313-.628 1.097-.785 1.723-.471.627.314.784 1.098.47 1.726L3.133 66.143c-.313.55-1.096.785-1.723.47z"/>
                <path fill="#514042" fill-rule="nonzero" d="M23.107 12.632h23.264v4.472H23.107z"/>
                <path fill="#F4D879" fill-rule="nonzero" d="M.235 67.398c0-2.196 1.802-4.001 3.995-4.001h15.98v4.001H.234z"/>
                <g fill="#D09C76" fill-rule="nonzero">
                    <path d="M17.624 63.24v1.883a4.049 4.049 0 0 0 4.073 4.08h1.567a4.049 4.049 0 0 0 4.073-4.08V63.24a2.275 2.275 0 0 0-2.271-2.275h-5.092c-1.331 0-2.35 1.02-2.35 2.275z"/>
                    <path d="M21.07 53.118c-.704 0-1.253.55-1.253 1.256v8.474c0 .706.549 1.255 1.254 1.255s1.253-.55 1.253-1.255v-8.474c0-.706-.548-1.256-1.253-1.256z"/>
                    <path d="M18.8 55.55c-.706 0-1.254.55-1.254 1.256v6.12c0 .706.548 1.256 1.253 1.256.705 0 1.253-.55 1.253-1.256v-6.12c.079-.706-.548-1.255-1.253-1.255zM23.656 50.843c-.705 0-1.254.55-1.254 1.255v10.75c0 .706.549 1.255 1.254 1.255s1.253-.55 1.253-1.255v-10.75c0-.627-.548-1.255-1.253-1.255z"/>
                    <path d="M26.006 53.118c-.705 0-1.254.55-1.254 1.256v8.474c0 .706.549 1.255 1.254 1.255s1.253-.55 1.253-1.255v-8.474c0-.706-.548-1.256-1.253-1.256z"/>
                    <path d="M30 58.925a1.197 1.197 0 0 0-1.723.47l-3.681 6.434a1.201 1.201 0 0 0 .47 1.726c.626.393 1.41.157 1.723-.47l3.681-6.434c.314-.628.157-1.413-.47-1.726z"/>
                </g>
                <path fill="#DDB888" fill-rule="nonzero" d="M28.277 18.595v-4.943l4.7 4.708c0-.078-5.17-.314-4.7.235z"/>
                <path fill="#DDB888" fill-rule="nonzero" d="M31.645 18.595v-3.923l4.387 3.688s-4.857-.157-4.387.235z"/>
            </g>
            <path fill="#FFF" fill-rule="nonzero" d="M168.443 121.418l-4.779 9.259c-.156.235-.47.392-.705.235-.235-.157-.391-.47-.235-.706l4.779-9.258c.156-.236.47-.393.705-.236.313.157.391.471.235.706zM173.22 119.535l-2.114 3.139a.51.51 0 0 1-.705.157.512.512 0 0 1-.157-.706l2.115-3.139a.51.51 0 0 1 .705-.157c.235.157.313.471.157.706zM173.456 124.4l-3.839 3.845c-.234.235-.548.235-.704 0-.235-.236-.235-.55 0-.707l3.838-3.844c.235-.236.548-.236.705 0 .235.235.235.55 0 .706z" opacity=".5"/>
            <g fill-rule="nonzero">
                <path fill="#A47255" d="M194.291 136.405l-21.384 4.001-4.151-7.61 23.969-4.473z"/>
                <path fill="#CC9A5C" d="M193.038 129.735l-23.499 4.394-1.488-2.589 24.439-4.55z"/>
            </g>
            <g fill-rule="nonzero">
                <path fill="#A47255" d="M163.116 145.35l27.416-.315-.079-8.238-25.065.314z"/>
                <path fill="#CC9A5C" d="M164.996 138.523l25.457-.235-.078-2.825-24.674.235z"/>
            </g>
            <g fill-rule="nonzero">
                <path fill="#A47255" d="M127.084 136.248l25.144 4.394 3.995-7.611-27.729-4.943z"/>
                <path fill="#CC9A5C" d="M128.26 129.5l27.258 4.865 1.41-2.668-28.199-5.022z"/>
            </g>
            <g fill-rule="nonzero">
                <path fill="#A47255" d="M160.375 144.565l-24.596.313-.078-8.238 22.245-.314z"/>
                <path fill="#CC9A5C" d="M158.338 137.817l-22.637.235v-2.824l21.775-.236z"/>
            </g>
        </g>
    </g>
</svg>
