<svg xmlns="http://www.w3.org/2000/svg" width="44" height="64" viewBox="0 0 44 64">
    <g fill="none" fill-rule="nonzero">
        <path fill="#948773" d="M31.331 63.548H12.062c-.607 0-1.138-.527-1.138-1.13v-6.173c0-.603.531-1.13 1.138-1.13h19.269c.607 0 1.138.527 1.138 1.13v6.174c0 .602-.531 1.13-1.138 1.13z"/>
        <path fill="#272F38" d="M33 57.675H10.469l1.897-30.57c0-1.806 1.44-3.237 3.262-3.237H27.84c1.821 0 3.262 1.43 3.262 3.238L33 57.676z"/>
        <path fill="#272F38" d="M27.386 25.826l-8.648 14.908c-1.517 2.635.38 5.873 3.414 5.873h17.372c3.035 0 4.931-3.238 3.414-5.873L34.29 25.826c-1.593-2.635-5.387-2.635-6.904 0z"/>
        <path fill="#272F38" d="M16.841 25.826l8.649 14.908c1.517 2.635-.38 5.873-3.414 5.873H4.703c-3.034 0-4.93-3.238-3.413-5.873l8.648-14.908c1.517-2.635 5.386-2.635 6.903 0z"/>
        <path fill="#3B4754" d="M41.269 41.562c0-1.43-1.138-2.56-2.58-2.56h-8.8v2.56h11.38zM2.807 41.562c0-1.43 1.138-2.56 2.58-2.56h8.8v2.56H2.806z"/>
        <path fill="#272F38" d="M13.428 23.868h17.828v3.012H13.428z"/>
        <path fill="#E49E75" d="M25.793 26.428c0 3.84-3.565 9.94-3.565 9.94s-3.566-5.347-3.566-9.94c0-1.957 1.593-3.539 3.566-3.539 1.972 0 3.565 1.582 3.565 3.54z"/>
        <g fill="#E49E75" transform="translate(18.207 18.07)">
            <path d="M0 .527h7.586v6.174H0z"/>
            <ellipse cx="3.793" cy="6.701" rx="3.793" ry="1.581"/>
            <path d="M2.503 8.207S1.745 8.132.91 7.68c-.834-.452-.834-.979-.834-.979V2.184h2.427v6.023z"/>
        </g>
        <path fill="#88938F" d="M20.028 27.407l2.2 8.96-4.704-7.002zM24.048 27.407l-1.82 8.96L26.4 29.29z"/>
        <path fill="#CAC6BD" d="M18.283 21.459l1.745 6.023-2.049 1.657-1.365-4.668c-.38-1.28.303-2.636 1.669-3.012zM25.793 21.384l-1.745 6.023 2.049 1.657 1.365-4.669c.38-1.28-.38-2.635-1.669-3.011z"/>
        <path fill="#3B4754" d="M25.793 21.384v8.96l3.566 1.505v-6.927c0-1.957-1.593-3.538-3.566-3.538zM18.283 21.459v8.96l-3.566 1.506v-6.927c0-1.958 1.593-3.54 3.566-3.54z"/>
        <path fill="#372324" d="M33.91 10.466a61.168 61.168 0 0 1-23.972 0C8.8 10.24 8.04 9.11 8.345 8.056c0-.075 0-.075.076-.15 8.876 2.108 18.207 2.108 27.158 0 0 .075 0 .075.076.15a2.15 2.15 0 0 1-1.745 2.41z"/>
        <path fill="#E49E75" d="M21.924 22.814c-3.717 0-6.752-3.012-6.752-6.701v-5.948c0-3.69 3.035-6.701 6.752-6.701 3.717 0 6.752 3.011 6.752 6.7v5.949c0 3.69-2.959 6.701-6.752 6.701z"/>
        <ellipse cx="15.552" cy="12.875" fill="#EBBA87" rx="1.745" ry="1.732"/>
        <path fill="#EBBA87" d="M21.924 22.513c-3.565 0-6.372-2.861-6.372-6.325V9.562c0-3.538 2.882-6.324 6.372-6.324 3.566 0 6.373 2.86 6.373 6.324v6.626c.075 3.54-2.807 6.325-6.373 6.325z"/>
        <path fill="#41383E" d="M23.29 12.574c0-.226.227-.452.455-.452h2.427c.228 0 .456.226.456.452s-.228.452-.456.452h-2.427c-.304-.075-.455-.226-.455-.452zM17.372 12.574c0-.226.228-.452.456-.452h2.427c.228 0 .455.226.455.452s-.227.452-.455.452h-2.427c-.228-.075-.456-.226-.456-.452z"/>
        <ellipse cx="19.041" cy="14.456" fill="#41383E" rx="1" ry="1"/>
        <ellipse cx="24.883" cy="14.456" fill="#41383E" rx="1" ry="1"/>
        <ellipse cx="28.372" cy="12.875" fill="#EBBA87" rx="1.745" ry="1.732"/>
        <path fill="#41383E" d="M27.234 12.047V9.261h1.518v4.292a1.516 1.516 0 0 1-1.518-1.506z"/>
        <path fill="#ED8262" d="M20.331 18.447c-.152 0-.228.15-.152.226.228.753.987 1.28 1.821 1.28s1.517-.527 1.82-1.28c0-.075-.075-.226-.151-.226h-3.338z"/>
        <path fill="#41383E" d="M15.172 13.553V9.336h1.518v2.711c0 .828-.683 1.506-1.518 1.506z"/>
        <path fill="#948773" d="M29.207 9.638h-14.49l.91-6.55c0-1.432 1.214-2.56 2.807-2.56 1.897 0 1.67.903 3.49.903 1.897 0 1.67-.98 3.566-.904 1.517 0 2.807 1.13 2.807 2.56l.91 6.55z"/>
        <path fill="#44525B" d="M29.207 9.638h-14.49l.38-2.56h13.73z"/>
        <g fill="#EBBA87">
            <path d="M15.097 38.25a.919.919 0 0 0-.91.903v5.195c0 .527.454.904.91.904.53 0 .91-.452.91-.904v-5.195a.919.919 0 0 0-.91-.904z"/>
            <path d="M18.814 40.81c0-.528-.455-.904-.91-.904h-2.807a.919.919 0 0 0-.91.903c0 .527.454.904.91.904h2.806c.531 0 .91-.452.91-.904z"/>
            <path d="M18.814 39.153c0-.527-.455-.904-.91-.904h-2.807a.919.919 0 0 0-.91.904c0 .527.454.903.91.903h2.806c.531 0 .91-.376.91-.903zM18.814 42.616c0-.527-.455-.903-.91-.903h-2.807a.919.919 0 0 0-.91.903c0 .528.454.904.91.904h2.806c.531 0 .91-.376.91-.904z"/>
            <path d="M18.814 44.348c0-.527-.455-.903-.91-.903h-2.807a.919.919 0 0 0-.91.903c0 .527.454.904.91.904h2.806c.531 0 .91-.377.91-.904z"/>
        </g>
        <g fill="#EBBA87">
            <path d="M28.98 38.25c.53 0 .91.451.91.903v5.195c0 .527-.456.904-.91.904a.919.919 0 0 1-.911-.904v-5.195c0-.452.38-.904.91-.904z"/>
            <path d="M25.262 40.81c0-.528.455-.904.91-.904h2.807c.531 0 .91.452.91.903 0 .527-.455.904-.91.904h-2.807a.919.919 0 0 1-.91-.904z"/>
            <path d="M25.262 39.153c0-.527.455-.904.91-.904h2.807c.531 0 .91.452.91.904 0 .527-.455.903-.91.903h-2.807c-.53 0-.91-.376-.91-.903zM25.262 42.616c0-.527.455-.903.91-.903h2.807c.531 0 .91.452.91.903 0 .528-.455.904-.91.904h-2.807c-.53 0-.91-.376-.91-.904z"/>
            <path d="M25.262 44.348c0-.527.455-.903.91-.903h2.807c.531 0 .91.451.91.903 0 .527-.455.904-.91.904h-2.807c-.53 0-.91-.377-.91-.904z"/>
        </g>
        <path fill="#948773" d="M34.366 9.638a59.512 59.512 0 0 1-24.732 0c-.834-.15-1.365-.98-1.213-1.807 8.876 2.108 18.207 2.108 27.158 0 .152.753-.379 1.58-1.213 1.807z"/>
    </g>
</svg>
