<svg xmlns="http://www.w3.org/2000/svg" width="52" height="64" viewBox="0 0 52 64">
    <g fill="none" fill-rule="nonzero">
        <path fill="#D46F59" d="M11.05 38.904h16.64c4.03 0 7.28 3.25 7.28 7.282V63.61H10.79c-3.9 0-7.02-3.12-7.02-7.022V46.186c0-4.031 3.38-7.282 7.28-7.282z"/>
        <path fill="#ECBA88" d="M24.18 36.693c-5.72 0-10.4-4.55-10.4-10.272v-8.972c0-5.722 4.55-10.403 10.27-10.403s10.4 4.551 10.4 10.273v8.972c.13 5.721-4.55 10.402-10.27 10.402z"/>
        <path fill="#ECBA88" d="M15.73 23.82h7.41c1.04 0 1.82.78 1.82 1.82v12.614H13.78V25.64c0-.91.91-1.82 1.95-1.82z"/>
        <path fill="#EDEBE6" d="M30.94 27.981c-.26 0-.52.26-.39.65.65 1.95 2.47 3.251 4.55 3.251 2.08 0 3.9-1.43 4.55-3.38.13-.26-.13-.65-.39-.52h-8.32z"/>
        <path fill="#624940" d="M18.33 23.3V17.32s-.13-1.56 1.43-1.56h12.22s7.93 0 8.45-7.153c.39-6.371-2.86-8.192-5.85-8.452-4.16-.13-5.98 3.381-5.98 3.381h-8.06c-7.67 0-13.65 5.332-14.56 11.313-.91 5.591.91 13.133 3.12 16.254 2.08 2.99 4.81 4.681 4.81 4.681V21.48h.39c1.04 0 1.95.78 1.95 1.95v1.69h.91c-.13-.13 1.17-.52 1.17-1.82z"/>
        <path fill="#ECBA88" d="M10.01 23.17c0-1.82 1.43-3.25 3.12-3.25 1.69 0 3.12 1.43 3.12 3.12v.13c0 1.69-1.43 3.12-3.12 3.12-1.82 0-3.12-1.43-3.12-3.12zM32.63 19.27v4.68c0 .52.39 1.04.91 1.04h4.03c.78 0 1.17-1.04.65-1.69l-4.03-4.681c-.65-.65-1.56-.26-1.56.65z"/>
        <path fill="#D46F59" d="M25.61 39.034H12.74v-4.031l12.87-2.47z"/>
        <path fill="#BDC2C5" d="M0 42.805h9.1c2.08 0 3.64-1.69 3.64-3.641v-.26L0 36.564v6.24z"/>
        <path fill="#B85A58" d="M30.42 38.904H26c-2.47 0-4.42 1.95-4.42 4.421V63.61h13.39V43.455c0-2.47-1.95-4.551-4.55-4.551z"/>
        <path fill="#979B9E" d="M38.35 42.805h-9.23c-1.95 0-3.51-1.56-3.51-3.511v-.39l12.87-2.34v6.24h-.13z"/>
        <path fill="#A1A5A8" d="M48.1 45.275h-3.25c-2.08 0-3.77-1.69-3.77-3.77v-8.453c0-2.08 1.69-3.77 3.77-3.77h3.25c2.08 0 3.77 1.69 3.77 3.77v8.453c0 2.08-1.69 3.77-3.77 3.77z"/>
        <path fill="#A1A5A8" d="M44.98 44.885h3.12V63.48h-3.12z"/>
        <path fill="#646464" d="M43.94 46.316c0-.65.52-1.17 1.17-1.17h2.99c.65 0 1.17.52 1.17 1.17 0 .65-.52 1.17-1.17 1.17h-2.99c-.65 0-1.17-.52-1.17-1.17zM45.76 36.173h-4.55v-2.6h4.55c.78 0 1.3.65 1.3 1.3s-.65 1.3-1.3 1.3zM45.76 40.724h-4.55v-2.6h4.55c.78 0 1.3.65 1.3 1.3 0 .78-.65 1.3-1.3 1.3zM50.57 38.124h1.3v2.6h-1.3c-.78 0-1.3-.65-1.3-1.3s.52-1.3 1.3-1.3zM50.57 33.443h1.3v2.6h-1.3c-.78 0-1.3-.65-1.3-1.3s.52-1.3 1.3-1.3z"/>
        <ellipse cx="27.82" cy="21.74" fill="#41383E" rx="1.43" ry="1.43"/>
        <path fill="#D46F59" d="M43.68 63.61H20.15c-3.12 0-5.72-2.6-5.72-5.721s2.6-5.722 5.72-5.722h23.53c3.12 0 5.72 2.6 5.72 5.722 0 3.12-2.6 5.72-5.72 5.72z"/>
        <path fill="#ECBA88" d="M38.35 57.889c0-3.121 2.6-5.722 5.72-5.722h1.95V63.61h-1.95c-3.12 0-5.72-2.47-5.72-5.721z"/>
        <path fill="#ECBA88" d="M51.87 62.44c.13-.52-.13-1.04-.52-1.3a.396.396 0 0 1 0-.52c.39-.26.52-.651.52-1.171s-.26-.91-.52-1.17a.396.396 0 0 1 0-.52c.39-.26.52-.65.52-1.17 0-.39-.26-.911-.52-1.171a.396.396 0 0 1 0-.52c.39-.26.52-.65.52-1.17 0-.78-.65-1.43-1.43-1.43h-6.37c-.78 0-1.43.65-1.43 1.43 0 .65.52 1.3 1.04 1.43-.65.13-1.04.78-1.04 1.43 0 .65.52 1.3 1.04 1.43-.65.13-1.04.78-1.04 1.43 0 .651.52 1.301 1.04 1.431-.65.13-1.17.91-1.04 1.56.13.78.78 1.3 1.56 1.3h6.24c.65-.13 1.3-.65 1.43-1.3z"/>
    </g>
</svg>
