<svg xmlns="http://www.w3.org/2000/svg" xmlns:xlink="http://www.w3.org/1999/xlink" width="166" height="96" viewBox="0 0 166 96">
    <defs>
        <path id="a" d="M8 0h206a8 8 0 0 1 8 8v128a8 8 0 0 1-8 8H8a8 8 0 0 1-8-8V8a8 8 0 0 1 8-8z"/>
    </defs>
    <g fill="none" fill-rule="evenodd" transform="translate(-56 -48)">
        <mask id="b" fill="#fff">
            <use xlink:href="#a"/>
        </mask>
        <g fill-rule="nonzero" mask="url(#b)">
            <path fill="#4C5375" d="M274.579 130.784c1.969-1.496 3.23-3.466 3.23-6.144v-5.592a8.283 8.283 0 0 0-3.23-6.538c-1.497-1.181-4.884-2.599-6.617-1.102-.236.157-.394.393-.551.55-.473.316-1.103.08-1.733.08-1.024 0-1.97.787-2.205 1.733-.08.236-.08.55-.237.787-.472.473-1.26 0-1.89.158-.473.079-.867.551-.945 1.102-.08.473 0 1.024.078 1.497.316 1.418.867 2.52.788 3.938v3.387a8.278 8.278 0 0 0 3.387 6.696c-5.514 1.811-9.688 6.537-10.791 12.366-1.024-4.647-4.49-8.35-8.98-9.688 1.182.394 2.206-3.151 2.442-3.939.473-1.811.237-3.702.08-5.592a12.974 12.974 0 0 0-.473-2.52c-1.024-2.836-3.072-4.648-6.223-4.648-3.702 0-6.853 2.993-6.853 6.774v4.569c0 2.284 1.182 4.253 2.915 5.434-4.333 1.418-7.64 5.042-8.665 9.61-1.103-5.907-5.356-10.712-11.027-12.524 1.969-1.496 3.387-3.86 3.387-6.616v-5.593c0-7.168-8.192-9.846-13.706-6.537-.787.472-1.654 1.023-2.205 1.732-.71.946-.945 2.127-1.024 3.309-.079.551 0 1.102-.079 1.575-.079.394-.157.788-.315 1.181-.158.473-.236.316-.709.316-.788 0-1.418.708-1.496 1.417-.08.71.472 1.497 1.181 1.733.473.158 1.024.158 1.103.71.315 1.338.394 2.756 1.181 3.937.394.63.867 1.103 1.34 1.655.236.315.866 1.339 1.417 1.181-5.514 1.812-9.688 6.538-10.791 12.288-1.103-5.278-5.041-9.531-10.082-11.106 1.811-1.418 2.993-3.545 2.993-5.987 0-1.102-.551-3.78.236-4.49.315-.236.63-.393.945-.708.473-.473.473-1.26.158-1.812-.394-.551-1.103-.709-1.733-.473.63-.551.709-1.654.236-2.363-.472-.709-1.496-1.024-2.284-.63 1.576-1.496-2.363-1.89-2.914-1.89-2.127.079-4.175.236-6.302.551-.55.079-1.102.158-1.575.394a5.948 5.948 0 0 0-1.103.866c-1.654 1.733-2.363 4.333-1.811 6.696.157.709.709.945 1.024 1.496.315.71 0 1.497 0 2.206 0 2.52 1.26 4.253 3.15 5.671-5.75 1.89-9.924 6.931-10.082 13.233H286c-.158-5.986-4.884-12.367-11.421-14.336z"/>
            <path fill="#4C5375" d="M163.99 130.784c1.969-1.496 3.544-3.466 3.544-6.144v-5.592c0-2.52-1.496-4.962-3.544-6.538-1.497-1.181-5.041-2.599-6.774-1.102-.237.157-.473.393-.63.55-.473.316-1.182.08-1.733.08-1.024 0-1.97.787-2.206 1.733-.079.236-.079.55-.236.787-.473.473-1.26 0-1.89.158-.473.079-.867.551-.946 1.102-.078.473 0 1.024.08 1.497.314 1.418.866 2.52.787 3.938v3.387a8.278 8.278 0 0 0 3.387 6.696c-5.514 1.811-9.689 6.537-10.791 12.366-1.024-4.647-4.49-8.35-8.98-9.688 1.576-1.26 2.678-3.151 2.678-5.356 0-.71-.315-3.703.315-4.254.08-.079.158-.079.237 0 .945.079 1.89.158 2.757-.315 1.102-.63 1.575-1.97 1.89-3.15a8.55 8.55 0 0 1-5.435-.158c-1.182-.473-1.812-1.733-2.914-2.363-1.103-.63-2.6-1.024-3.781-1.024-3.702 0-6.932 2.993-6.932 6.774v4.568c0 2.285 1.34 4.254 2.993 5.435-4.332 1.418-7.561 5.041-8.585 9.61-1.103-5.908-5.435-10.713-11.106-12.524 1.969-1.497 3.308-3.86 3.308-6.617v-5.592c0-4.332-3.545-8.113-7.877-8.27-1.969-.08-3.938.787-5.829 1.338-2.126.63-4.017 2.206-4.804 4.333-.315.787-.473 1.811-.08 2.599.395.788 1.419 1.339 2.206.945-.157 1.575-.157 3.23-.157 4.805a8.278 8.278 0 0 0 3.387 6.695c-5.514 1.812-9.689 6.538-10.791 12.288-1.103-5.278-5.041-9.531-10.083-11.106 1.812-1.418 2.994-3.545 2.994-5.987 0-1.102-.552-3.78.236-4.49.315-.236.63-.393.945-.708.473-.473.473-1.26.158-1.812-.394-.551-1.103-.709-1.733-.473.63-.55.709-1.654.236-2.363-.473-.708-1.496-1.024-2.284-.63.394-.394.157-1.181-.394-1.496-.551-.237-1.181-.158-1.733.079-.709-.788-2.127-.867-2.914-.08-.552-.55-1.576-.55-2.127 0-.236.237-.394.473-.63.63-.315.158-.709.08-1.024.08-.945.078-1.733.945-1.654 1.89-.473-.236-1.103 0-1.418.473-.315.472-.394 1.024-.394 1.575 0 .236 0 .551-.157.63-.158.079-.315.079-.473.079-.63 0-1.26.394-1.497.945-.236.551-.157 1.26.237 1.733.551.709 1.418.945 1.654 1.89.157.552-.079 1.34-.079 1.89 0 2.521 1.26 4.254 3.15 5.672-5.75 1.89-9.924 6.932-10.081 13.233H175.647c-.709-6.301-5.12-12.682-11.657-14.65z"/>
            <g transform="translate(142.644 48)">
                <path fill="#34394D" d="M45.764 63.486l-11.5 19.928c-2.048 3.466.472 7.877 4.568 7.877h23c4.017 0 6.538-4.332 4.569-7.877L54.9 63.486c-2.048-3.465-7.09-3.465-9.137 0z"/>
                <circle cx="62.226" cy="85.62" r="6.301" fill="#657293"/>
                <path fill="#34394D" d="M23.709 54.349h21.346v7.01H23.709z"/>
                <path fill="#34394D" d="M13.627 66.322a7.396 7.396 0 0 1 7.404-7.404h26.938a7.396 7.396 0 0 1 7.404 7.404H13.627z"/>
                <path fill="#34394D" d="M23.158 63.486l11.5 19.928c2.047 3.466-.473 7.877-4.569 7.877h-23c-4.017 0-6.538-4.332-4.568-7.877l11.5-19.928c2.126-3.465 7.167-3.465 9.137 0z"/>
                <path fill="#34394D" d="M54.586 112.873H14.099l5.987-48.757a5.194 5.194 0 0 1 5.198-5.198H43.48a5.194 5.194 0 0 1 5.2 5.198l5.907 48.757z"/>
                <path fill="#1F222E" d="M30.483 97.986l2.363-32.215h2.6l2.362 32.215z"/>
                <circle cx="6.616" cy="85.62" r="6.301" fill="#657293"/>
                <ellipse cx="34.342" cy="60.178" fill="#E39E75" rx="5.829" ry="2.521"/>
                <path fill="#E39E75" d="M28.514 50.726h11.658v9.452H28.514z"/>
                <circle cx="46" cy="43.952" r="2.836" fill="#E39E75"/>
                <circle cx="22.921" cy="43.952" r="2.836" fill="#E39E75"/>
                <path fill="#E39E75" d="M34.421 56.791a11.8 11.8 0 0 1-11.815-11.815v-7.64A11.8 11.8 0 0 1 34.421 25.52a11.8 11.8 0 0 1 11.815 11.815v7.64c0 6.538-5.356 11.815-11.815 11.815z"/>
                <path fill="#FFF3DE" d="M34.421 54.743a11.093 11.093 0 0 1-11.106-11.106v-7.168a11.093 11.093 0 0 1 11.106-11.106 11.093 11.093 0 0 1 11.106 11.106v7.168c-.078 6.144-5.04 11.106-11.106 11.106z"/>
                <circle cx="28.356" cy="40.014" r="1" fill="#3F454C"/>
                <circle cx="40.092" cy="40.014" r="1" fill="#3F454C"/>
                <path fill="#34394D" d="M22.449 35.524l-1.34-16.541c0-.473.394-.945.946-.945H46.63c.552 0 .945.394.945.945l-1.339 16.541c0 .473-.394.945-.945.945H23.315c-.473 0-.866-.394-.866-.945z"/>
                <path fill="#64B159" d="M45.606 28.277s-.63 2.285-2.442 3.23c-1.811.945-4.017.236-4.017.236s.63-2.284 2.442-3.23c1.733-.945 4.017-.236 4.017-.236z"/>
                <path fill="#269B55" d="M39.147 31.743c.237.079 2.285.63 4.017-.236 1.654-.867 2.363-2.993 2.442-3.15l-6.459 3.386z"/>
                <path fill="#E39E75" d="M39.068 42.613h2.048c.316 0 .473-.236.473-.473 0-.315-.236-.472-.473-.472h-2.048c-.315 0-.472.236-.472.472 0 .237.236.473.472.473zM27.332 42.613h2.048c.315 0 .473-.236.473-.473 0-.315-.237-.472-.473-.472h-2.048c-.315 0-.472.236-.472.472 0 .237.236.473.472.473z"/>
                <path fill="#64B159" d="M41.274 24.812s1.103 2.048.551 4.017c-.551 1.969-2.678 2.993-2.678 2.993s-1.102-2.048-.551-4.017c.63-1.97 2.678-2.993 2.678-2.993z"/>
                <path fill="#269B55" d="M39.147 31.743c.158-.079 2.127-1.181 2.678-2.993.552-1.812-.472-3.78-.551-3.938l-2.127 6.931z"/>
                <path fill="#735347" d="M22.449 42.85v-6.066h2.363v3.702c0 1.34-1.024 2.363-2.363 2.363zM43.795 40.486v-3.702h2.363v6.065c-1.26 0-2.363-1.024-2.363-2.363z"/>
                <path fill="#5C626C" d="M46.473 33.24H22.29l-.236-2.285H46.63z"/>
                <path fill="#2B2F40" d="M49.387 37.02H19.062a.79.79 0 0 1-.788-.787.79.79 0 0 1 .788-.788h30.325a.79.79 0 0 1 .788.788.79.79 0 0 1-.788.788z"/>
                <path fill="#D59075" d="M64.983 88.377c-1.654 1.654-4.411 1.654-6.065 0L50.41 79.87l6.065-6.065 8.507 8.507c1.654 1.654 1.654 4.332 0 6.065zM3.78 88.377c1.655 1.654 4.412 1.654 6.066 0l8.507-8.507-6.065-6.065-8.507 8.507c-1.733 1.654-1.733 4.332 0 6.065z"/>
                <path fill="#FFF3DE" d="M16.699 70.339a5.312 5.312 0 0 0-5.357 5.356v4.411h10.713v-4.41a5.312 5.312 0 0 0-5.356-5.357z"/>
                <path fill="#FFF3DE" d="M17.486 71.757c0-.788-.63-1.497-1.496-1.497H9.688c-.787 0-1.496.63-1.496 1.497 0 .788.63 1.496 1.496 1.496h6.302c.866 0 1.496-.63 1.496-1.496z"/>
                <path fill="#F2A57A" d="M50.175 73.253c2.126-2.126 5.513-2.126 7.561 0l3.151 3.151-7.562 7.562-3.15-3.15c-2.127-2.049-2.127-5.436 0-7.563z"/>
                <path fill="#FFF3DE" d="M50.568 74.908c-.55-.552-.55-1.497 0-2.127l4.411-4.411c.552-.552 1.497-.552 2.127 0 .552.551.552 1.496 0 2.127l-4.41 4.41c-.552.552-1.497.552-2.128 0zM12.76 77.822c-.787 0-1.418.63-1.418 1.418v5.435c0 .787.63 1.417 1.418 1.417.788 0 1.418-.63 1.418-1.417V79.24c-.079-.788-.709-1.418-1.418-1.418z"/>
                <path fill="#FFF3DE" d="M15.438 77.822c-.787 0-1.417.63-1.417 1.418v7.404c0 .788.63 1.418 1.417 1.418.788 0 1.418-.63 1.418-1.418V79.24c-.079-.788-.709-1.418-1.418-1.418z"/>
                <path fill="#FFF3DE" d="M18.038 77.822c-.788 0-1.418.63-1.418 1.418v6.301c0 .788.63 1.418 1.418 1.418.787 0 1.417-.63 1.417-1.418V79.24c0-.788-.63-1.418-1.417-1.418z"/>
                <path fill="#FFF3DE" d="M20.716 77.822c-.788 0-1.418.63-1.418 1.418v4.726c0 .787.63 1.418 1.418 1.418.787 0 1.418-.63 1.418-1.418V79.24c0-.788-.63-1.418-1.418-1.418z"/>
                <path fill="#EE8262" d="M30.247 44.582c-.315 0-.552.315-.394.63.63 1.97 2.52 3.387 4.726 3.387 2.205 0 4.017-1.417 4.726-3.387.079-.315-.079-.63-.394-.63h-8.664z"/>
                <path fill="#DA6557" d="M34.5 46.394a4.948 4.948 0 0 0-3.15 1.103s1.653 1.102 3.071 1.102c1.182 0 2.284-.472 3.15-1.181-.787-.63-1.89-1.024-3.071-1.024z"/>
                <path fill="#FEA100" d="M15.202 47.339s6.223 1.182 6.223 7.168c0 6.065-6.223 7.246-6.223 7.246S8.98 60.73 8.98 54.507c0-6.223 6.223-7.168 6.223-7.168z"/>
                <path fill="#FE8400" d="M15.202 47.339s0 .079 0 0v14.414s6.223-1.26 6.223-7.246c0-5.908-6.223-7.168-6.223-7.168z"/>
                <path fill="#FEA100" d="M57.027 70.024s3.545 5.277-.63 9.452c-4.253 4.253-9.53.788-9.53.788s-3.703-5.12.787-9.531c4.332-4.411 9.373-.709 9.373-.709z"/>
                <path fill="#FE8400" d="M57.027 70.024l-10.24 10.16s5.278 3.545 9.531-.787c4.254-4.174.71-9.373.71-9.373z"/>
                <path fill="#FEA100" d="M41.825 6.774s-1.181 6.223-7.167 6.223c-6.066 0-7.247-6.223-7.247-6.223S28.435.551 34.658.551c6.222 0 7.167 6.223 7.167 6.223z"/>
                <path fill="#FE8400" d="M41.825 6.774H27.411s1.26 6.223 7.247 6.223c5.986 0 7.167-6.223 7.167-6.223z"/>
                <path fill="#FFF3DE" d="M61.045 78.295c-.552.55-1.497.55-2.127 0l-2.52-2.521c-.552-.551-.552-1.497 0-2.127.55-.551 1.496-.551 2.126 0l2.52 2.52c.552.63.552 1.497 0 2.128z"/>
                <path fill="#FFF3DE" d="M59.075 80.185c-.551.551-1.496.551-2.126 0l-3.939-3.938c-.551-.552-.551-1.497 0-2.127.552-.552 1.497-.552 2.127 0l3.938 3.938c.63.63.63 1.576 0 2.127z"/>
                <path fill="#FFF3DE" d="M57.185 82.154c-.551.551-1.497.551-2.127 0l-3.387-3.387c-.551-.551-.551-1.496 0-2.127.552-.551 1.497-.551 2.127 0l3.387 3.387c.551.63.551 1.576 0 2.127z"/>
                <path fill="#FFF3DE" d="M55.216 84.045c-.552.55-1.497.55-2.127 0l-2.52-2.521c-.552-.551-.552-1.497 0-2.127.55-.551 1.496-.551 2.126 0l2.52 2.52c.552.63.552 1.576 0 2.128z"/>
            </g>
        </g>
    </g>
</svg>
