<svg xmlns="http://www.w3.org/2000/svg" xmlns:xlink="http://www.w3.org/1999/xlink" width="460" height="144" viewBox="0 0 460 144">
    <defs>
        <path id="a" d="M8 0h444a8 8 0 0 1 8 8v128a8 8 0 0 1-8 8H8a8 8 0 0 1-8-8V8a8 8 0 0 1 8-8z"/>
        <linearGradient id="c" x1="47.329%" x2="47.329%" y1="76.795%" y2="16.952%">
            <stop offset="0%" stop-color="#1B4E79"/>
            <stop offset="100%" stop-color="#007AFF"/>
        </linearGradient>
        <path id="d" d="M0 0h108v115H0z"/>
        <linearGradient id="f" x1="50%" x2="50%" y1="0%" y2="100%">
            <stop offset="0%" stop-color="#4A6077"/>
            <stop offset="100%" stop-color="#85A0BD"/>
        </linearGradient>
        <linearGradient id="g" x1="50%" x2="50%" y1="0%" y2="100%">
            <stop offset="0%" stop-color="#4E6781"/>
            <stop offset="100%" stop-color="#758EAB"/>
        </linearGradient>
        <linearGradient id="h" x1="50%" x2="50%" y1="0%" y2="100%">
            <stop offset="0%" stop-color="#4D6279"/>
            <stop offset="100%" stop-color="#6E87A2"/>
        </linearGradient>
        <linearGradient id="i" x1="50%" x2="50%" y1="0%" y2="100%">
            <stop offset="0%" stop-color="#4D6279"/>
            <stop offset="100%" stop-color="#6E87A2"/>
        </linearGradient>
        <linearGradient id="j" x1="50%" x2="50%" y1="0%" y2="100%">
            <stop offset="0%" stop-color="#4D6279"/>
            <stop offset="100%" stop-color="#6E87A2"/>
        </linearGradient>
        <linearGradient id="k" x1="50%" x2="50%" y1="0%" y2="100%">
            <stop offset="0%" stop-color="#4D6279"/>
            <stop offset="100%" stop-color="#6E87A2"/>
        </linearGradient>
        <linearGradient id="l" x1="69.39%" x2="66.476%" y1="32.634%" y2="57.745%">
            <stop offset="0%" stop-color="#556B84"/>
            <stop offset="100%" stop-color="#6D86A1"/>
        </linearGradient>
    </defs>
    <g fill="none" fill-rule="evenodd">
        <mask id="b" fill="#fff">
            <use xlink:href="#a"/>
        </mask>
        <use fill="#FFF" xlink:href="#a"/>
        <path fill="#2E89D6" d="M-21-3h486v158H-21z" mask="url(#b)"/>
        <path fill="url(#c)" d="M-22.401-38h486v241h-486z" mask="url(#b)" opacity=".135"/>
        <path fill="#FFF" d="M334.052 134.623a5.063 5.063 0 0 1 2.682-.762c.952 0 1.842.26 2.599.71l.523-.005 19.459 14.09 21.095 21.641L76.451 285.612l-.576-148.313 18.036-.187c2.38-8.838 10.65-15.36 20.487-15.36 6.62 0 12.53 2.953 16.413 7.578.93-.204 1.9-.312 2.894-.312 4.775 0 8.952 2.488 11.235 6.203 6.241-4.289 13.86-6.809 22.084-6.809 7.173 0 13.885 1.917 19.624 5.253a12.591 12.591 0 0 1-.006-.409c0-7.022 5.855-12.715 13.078-12.715 6.576 0 12.018 4.718 12.94 10.862a5.047 5.047 0 0 1 3.253-1.174c2.75 0 4.98 2.166 4.982 4.839a21.563 21.563 0 0 1 9.965-2.417 21.54 21.54 0 0 1 10.652 2.79c7.697-10.83 20.557-17.927 35.123-17.927 14.304 0 26.964 6.844 34.704 17.347l1.75-.018c2.38-3.164 6.226-5.22 10.567-5.22 4.238 0 8.006 1.96 10.396 5zm-172.701-8.64c-2.752 0-4.983-2.168-4.983-4.843s2.231-4.844 4.983-4.844c2.751 0 4.982 2.169 4.982 4.844 0 2.675-2.23 4.843-4.982 4.843zm19.571-9.281c-1.376 0-2.49-1.084-2.49-2.422s1.114-2.422 2.49-2.422c1.376 0 2.491 1.084 2.491 2.422s-1.115 2.422-2.49 2.422zm54.297 8.077c-.688 0-1.245-.542-1.245-1.21 0-.67.557-1.211 1.245-1.211.688 0 1.246.542 1.246 1.21 0 .67-.558 1.211-1.246 1.211zm5.013-6.66c-4.3 0-7.785-3.388-7.785-7.568s3.485-7.568 7.785-7.568c4.3 0 7.785 3.388 7.785 7.568s-3.486 7.568-7.785 7.568z" mask="url(#b)" opacity=".071" transform="rotate(-6 228.143 194.297)"/>
        <path fill="#3D6991" d="M331.367 102.012L329 109.654l44.993 25.641 25.283 21.323 13.295 71.663L479.343 231 484 102z" mask="url(#b)"/>
        <g mask="url(#b)" opacity=".668">
            <g transform="translate(353 -13)">
                <mask id="e" fill="#fff">
                    <use xlink:href="#d"/>
                </mask>
                <g mask="url(#e)">
                    <path fill="url(#f)" d="M0 .76h12.764v112.522H0z" transform="translate(5.61 38.224)"/>
                    <path fill="#4B8AC2" d="M11.22 43.726c0-.344.278-.623.626-.623.346 0 .626.28.626.623v1.658h-1.251v-1.658zM11.22 49.999a.625.625 0 1 1 1.251 0l.001 1.657h-1.251V50z"/>
                    <g fill="#36485A">
                        <path d="M6.11 38.224h1.252v1.52H6.11zM8.614 38.224h1.25v1.52h-1.25zM11.116 38.224h1.25v1.52h-1.25zM13.619 38.224h1.25v1.52h-1.25zM16.122 38.224h1.25v1.52h-1.25z"/>
                    </g>
                    <path fill="url(#g)" d="M0 .697h24.545v94.944H0z" transform="translate(0 74.357)"/>
                    <g fill="#2E6A9E">
                        <path d="M11.922 74.357h1.292v1h-1.292zM14.506 74.357h1.292v1h-1.292zM17.09 74.357h1.291v.76H17.09zM19.673 74.357h1.292v.76h-1.292zM22.257 74.357h1.292v1h-1.292z"/>
                    </g>
                    <g fill="#315C84">
                        <path d="M1.403 74.357h1.292v1H1.403zM3.987 74.357h1.292v1H3.987zM6.57 74.357h1.292v.76H6.57zM9.154 74.357h1.292v.76H9.154zM11.738 74.357h1.292v1h-1.292z"/>
                    </g>
                    <path fill="url(#h)" d="M9.818 88.868h18.655v28.32H9.818z" transform="translate(0 2.09)"/>
                    <path fill="#5D8DBA" d="M16.831 99.738c0-.81.654-1.465 1.473-1.465a1.47 1.47 0 0 1 1.473 1.465v3.418H16.83v-3.418z"/>
                    <path fill="url(#i)" d="M0 1.02h9.19v95.66H0z" transform="translate(99.164 18.693)"/>
                    <g fill="#2E6AA0">
                        <path d="M100.44 18.693h1.276v1.275h-1.276zM102.993 18.693h1.276v1.275h-1.276zM105.545 18.693h1.277v1.275h-1.277z"/>
                    </g>
                    <path fill="#7891AB" d="M102.11 23.098a.5.5 0 0 1 .49-.5c.271 0 .49.223.49.5v5.36h-.98v-5.36z"/>
                    <path fill="#2B70AD" d="M99.89 2.09h.49v30.275h-.49z"/>
                    <path fill="url(#j)" d="M0 1.261h12.764v112.02H0z" transform="translate(95.236 31.388)"/>
                    <g fill="#315C84">
                        <path d="M96.237 31.388h1.251v1.26h-1.25zM98.74 31.388h1.251v1.26h-1.25zM101.242 31.388h1.251v1.26h-1.25zM103.745 31.388h1.252v1.261h-1.252zM106.248 31.388h1.251v1.26h-1.25z"/>
                    </g>
                    <g>
                        <path fill="#475B70" d="M20.236 94.92l58.16-21.768 1.753-.631 2.599.13.16 47.137-62.56.42z"/>
                        <g fill="#395D7B">
                            <path d="M77.687 72.521h3.804v1h-3.804zM67.361 76.33h3.804v1h-3.804z"/>
                            <path d="M75.785 73.283h3.804v1h-3.804zM65.46 77.091h3.803v.762H65.46z"/>
                            <path d="M73.611 74.044h3.804v1h-3.804zM63.285 77.853h3.805v.762h-3.805z"/>
                            <path d="M71.437 74.806h3.804v1h-3.804zM61.111 78.615h3.804v1h-3.804z"/>
                            <path d="M69.263 75.568h3.805v.762h-3.805zM58.937 79.377h3.804v1h-3.804z"/>
                        </g>
                        <g fill="#345E81">
                            <path d="M56.927 80.138h3.804v1h-3.804zM46.6 83.947h3.805v1H46.6z"/>
                            <path d="M55.025 80.9h3.804v1h-3.804zM44.699 84.709h3.804v.761h-3.804z"/>
                            <path d="M52.85 81.662h3.805v.761h-3.804zM42.525 85.47h3.804v.762h-3.804zM50.677 82.423h3.804v1h-3.804zM40.35 86.232h3.805v1H40.35z"/>
                            <path d="M48.503 83.185h3.804v.762h-3.804zM38.177 86.994h3.804v1h-3.804z"/>
                        </g>
                        <g fill="#365D7E">
                            <path d="M36.423 87.755h3.804v1h-3.804zM26.097 91.564H29.9v1h-3.804z"/>
                            <path d="M34.52 88.517h3.805v1H34.52zM24.195 92.326h3.804v.762h-3.804z"/>
                            <path d="M32.347 89.279h3.804v.762h-3.804zM22.02 93.088h3.805v.761h-3.804z"/>
                            <path d="M30.173 90.04h3.804v1h-3.804zM19.847 93.85h3.804v.761h-3.804z"/>
                            <path d="M27.999 90.802h3.804v1h-3.804zM17.673 94.611h3.804v1h-3.804z"/>
                        </g>
                        <path fill="#4A5C6D" d="M80.232 73.283h-1.526v-.762h1.526v-.762h1.95v-.761h1.95v-.762h1.95v-.762h9.154v13.203H86.59v32.696h-4.408v-42.09h-1.95z"/>
                    </g>
                    <g>
                        <path fill="url(#k)" d="M0 0h14.727v59.571H0z" transform="translate(85.418 78.263)"/>
                        <path fill="#445B73" d="M100.145 78.263h3.156v36.94h-3.156z"/>
                        <path fill="#2E567A" d="M85.418 78.263h14.727v1H85.418z"/>
                    </g>
                    <g>
                        <path fill="#2C6698" d="M89.09 47.99h.49v30.273h-.49z"/>
                        <path fill="#80B6F1" d="M88.577 48.99h.768v.489h-.768zM88.577 50.241h.768v.489h-.768z"/>
                        <path fill="#80B6F1" d="M88.823 48.758s-.976-.105-2.413.194c-.886.185-1.943.523-3.046.651-1.186.138-2.363.015-3.35.04-1.42.036-2.45.423-2.45.423s1.043-.216 2.432-.005c1.018.154 2.223.492 3.38.562 1.132.068 2.261-.091 3.2-.126 1.328-.049 2.257.245 2.257.245"/>
                    </g>
                    <g>
                        <path fill="#2B70AD" d="M26.253 61.662h.49v29.297h-.49z"/>
                        <path fill="#63A6E8" d="M25.74 61.914h.77v.488h-.77zM25.74 63.177h.77v.488h-.77z"/>
                        <path fill="#63A6E8" d="M25.987 63.664s-.976.106-2.413-.196c-.887-.187-1.943-.528-3.047-.657-1.186-.14-2.362-.015-3.35-.04-1.42-.036-2.45-.428-2.45-.428s1.043.219 2.433.006c1.017-.156 2.223-.497 3.38-.567 1.132-.069 2.261.091 3.199.126 1.329.05 2.258-.246 2.258-.246"/>
                    </g>
                    <path fill="#5D8DBB" d="M90.327 74.845c0-.809.654-1.465 1.473-1.465a1.47 1.47 0 0 1 1.473 1.465v3.418h-2.946v-3.418z"/>
                    <g fill="#2985D5">
                        <path d="M31.418 100.632c0-3.65 2.968-6.61 6.613-6.61a6.61 6.61 0 0 1 6.614 6.61v24.832H31.418v-24.832zM49.35 94.09c0-3.65 2.969-6.609 6.614-6.609a6.61 6.61 0 0 1 6.613 6.609v30.116H49.35V94.09zM67.283 87.807a6.618 6.618 0 0 1 6.613-6.614 6.617 6.617 0 0 1 6.613 6.614v43.19H67.283v-43.19z"/>
                    </g>
                    <g>
                        <path fill="url(#l)" d="M0 22.423L59.532.25l12.54.07-.03 12.775L.18 33.976z" transform="matrix(-1 0 0 1 81.89 102.677)"/>
                        <path fill="#27537F" d="M24.804 102.929h-3.78v.754h3.78zM35.064 106.699h-3.78v.754h3.78zM26.694 103.683h-3.78v.754h3.78zM36.954 107.453h-3.78v.754h3.78z"/>
                        <path fill="#27537F" d="M28.854 104.437h-3.78v.754h3.78zM39.114 108.207h-3.78v.753h3.78z"/>
                        <path fill="#27537F" d="M31.014 105.19h-3.78v.755h3.78zM41.274 108.96h-3.78v.754h3.78zM33.174 105.945h-3.78v.754h3.78zM43.435 109.714h-3.78v.754h3.78zM45.432 110.468h-3.78v.754h3.78zM55.692 114.238h-3.78v.754h3.78z"/>
                        <path fill="#27537F" d="M47.322 111.222h-3.78v.754h3.78zM57.583 114.992h-3.78v.754h3.78zM49.482 111.976h-3.78v.754h3.78z"/>
                        <path fill="#27537F" d="M59.743 115.746h-3.78v.754h3.78zM51.642 112.73h-3.78v.754h3.78zM61.903 116.5h-3.78v.754h3.78z"/>
                        <path fill="#27537F" d="M53.802 113.484h-3.78v.754h3.78zM64.063 117.254h-3.78v.754h3.78z"/>
                        <path fill="#27537F" d="M65.806 118.008h-3.78v.754h3.78zM76.066 121.778h-3.78v.754h3.78zM67.696 118.762h-3.78v.754h3.78z"/>
                        <path fill="#27537F" d="M77.956 122.532h-3.78v.754h3.78zM69.856 119.516h-3.78v.754h3.78zM80.116 123.286h-3.78v.754h3.78z"/>
                        <path fill="#27537F" d="M72.016 120.27h-3.78v.754h3.78zM82.276 124.04h-3.78v.754h3.78zM74.176 121.024h-3.78v.754h3.78z"/>
                        <path fill="#27537F" d="M84.436 124.794h-3.78v.754h3.78z"/>
                    </g>
                </g>
            </g>
        </g>
    </g>
</svg>
