<svg xmlns="http://www.w3.org/2000/svg" width="64" height="58" viewBox="0 0 64 58">
    <g fill="none" fill-rule="nonzero">
        <path fill="#4D4349" d="M59.938 48.498L57.477 8.515c-10.092 0-18.092 12.957-18.092 23.076v26.162H62.523c.739 0 1.108-.864.615-1.48-2.092-2.099-3.2-4.813-3.2-7.775z"/>
        <path fill="#D5D1CE" d="M44.554 57.753H35.2V31.591c0-9.995 8.123-18.14 18.092-18.14v35.664c0 4.69-3.938 8.638-8.738 8.638z"/>
        <g transform="translate(33.23)">
            <ellipse cx="15.385" cy="8.515" fill="#4D4349" rx="8.862" ry="8.515"/>
            <path fill="#FFD54E" d="M8 8.885l-6.892 3.826c-.37.246-.123.74.246.617l9.723-1.358c.861-.123 1.23-.987.861-1.727l-.123-.124C11.2 8.64 9.354 8.021 8 8.885z"/>
            <ellipse cx="16.738" cy="8.515" fill="#CDD" rx="1.108" ry="1.111"/>
        </g>
        <path fill="#4D4349" d="M55.262 8.638h2.092v8.021h-2.092z"/>
        <path fill="#F86A46" d="M43.446 57.753h-9.23a1.368 1.368 0 0 1-1.354-1.357c0-.74.615-1.358 1.353-1.358h9.231c.739 0 1.354.617 1.354 1.358 0 .74-.615 1.357-1.354 1.357z"/>
        <path fill="#54A3BF" d="M43.938 37.145H29.292c-.738 0-1.23-.494-1.23-1.234V19.868c0-.74.492-1.234 1.23-1.234h14.523c.739 0 1.231.494 1.231 1.234v16.043c.123.617-.492 1.234-1.108 1.234z"/>
        <path fill="#6BB9D6" d="M39.877 37.145H26.215c-.738 0-1.23-.494-1.23-1.234V19.868c0-.74.492-1.234 1.23-1.234h13.662c.738 0 1.23.494 1.23 1.234v16.043c0 .617-.615 1.234-1.23 1.234z"/>
        <g fill="#4D4349">
            <path d="M23.262 32.702a3.597 3.597 0 0 0 3.076-3.579c0-1.85-1.353-3.455-3.076-3.578v7.157z"/>
            <path d="M23.877 26.038v6.17c0 .37-.246.618-.615.618-.37 0-.616-.247-.616-.617v-6.17c0-.37.246-.618.616-.618.369 0 .615.247.615.617z"/>
        </g>
        <path fill="#FAF8F2" d="M31.262 32.085v-8.638h5.907v1.727h-3.938v1.605h3.692v1.727h-3.692v1.851h4.061v1.728z"/>
        <path fill="#54A3BF" d="M38.154 57.753h-14.77c-.738 0-1.23-.493-1.23-1.234V40.477c0-.74.492-1.234 1.23-1.234h14.77c.738 0 1.23.493 1.23 1.234v16.042c0 .74-.492 1.234-1.23 1.234zM19.2 57.753H4.43c-.738 0-1.23-.493-1.23-1.234V40.477c0-.74.492-1.234 1.23-1.234H19.2c.738 0 1.23.493 1.23 1.234v16.042c0 .74-.615 1.234-1.23 1.234z"/>
        <path fill="#6BB9D6" d="M16.738 57.753H2.462A2.472 2.472 0 0 1 0 55.285V41.711a2.472 2.472 0 0 1 2.462-2.468h14.276v18.51zM34.092 57.753H18.954v-18.51h15.138c.739 0 1.231.493 1.231 1.234v16.042c0 .74-.615 1.234-1.23 1.234z"/>
        <path fill="#FAF8F2" d="M30.154 52.817a5.09 5.09 0 0 1-1.97.37c-.615 0-1.23-.123-1.846-.37-.615-.247-1.107-.494-1.476-.987a4.438 4.438 0 0 1-.985-1.481 4.963 4.963 0 0 1-.37-1.851c0-.74.124-1.358.37-1.851.246-.617.615-.987.985-1.481.369-.37.984-.74 1.476-.864.493-.123 1.231-.37 1.847-.37.615 0 1.23.123 1.846.37.615.247 1.107.494 1.477.987L30.03 46.77c-.246-.247-.493-.493-.739-.617-.369-.123-.615-.247-.984-.247-.37 0-.739.124-.985.247-.246.124-.615.37-.738.617-.247.247-.37.494-.493.864s-.123.74-.123 1.11c0 .37 0 .741.123 1.111s.246.617.493.864c.246.247.492.37.738.494.246.123.615.247.985.247.369 0 .738-.124 1.107-.247.37-.124.616-.37.739-.617l1.477 1.357c-.493.247-.985.617-1.477.864zM8 53.064v-8.762h2.092v8.762z"/>
        <path fill="#4D4349" d="M56.492 18.264c-.123-2.468-3.077-3.702-4.8-1.975-1.846 1.605-4.061 4.32-6.277 8.515-3.815 7.158-3.446 14.932-2.953 18.387.123.74 1.107 1.111 1.6.494 2.707-2.962 9.476-10.613 11.323-16.783 1.107-3.332 1.23-6.293 1.107-8.638z"/>
    </g>
</svg>
