<?xml version="1.0" ?><svg viewBox="0 0 64 64" xmlns="http://www.w3.org/2000/svg"><title/><g data-name="69-wander woman" id="_69-wander_woman"><path d="M29.86,15l-2.43-3.4a17.7,17.7,0,0,1,9.14,0L34.14,15,32,18Z" style="fill:#ffa426"/><path d="M34.14,12,32,15l-2.14-3-.563-.788a17.3,17.3,0,0,0-1.867.388L29.86,15,32,18l2.14-3,2.43-3.4a17.3,17.3,0,0,0-1.867-.388Z" style="fill:#fe6a16"/><path d="M29.86,15H21a15.313,15.313,0,0,1,6.43-3.4Z" style="fill:#fad17f"/><path d="M43,15H34.14l2.43-3.4A15.313,15.313,0,0,1,43,15Z" style="fill:#fad17f"/><path d="M47,63H17c0-7,2-10,2-10l5-5,2,2,3,3,3,3,3-3,3-3,2-2,5,5S47,56,47,63Z" style="fill:#ff7045"/><path d="M19,57l5-5,2,2,3,3,3,3,3-3,3-3,2-2,5,5a15.23,15.23,0,0,1,1.754,6H47c0-7-2-10-2-10l-5-5-2,2-3,3-3,3-3-3-3-3-2-2-5,5s-2,3-2,10h.246A15.23,15.23,0,0,1,19,57Z" style="fill:#f92814"/><polygon points="45 48 45 53 40 48 38 50 35 53 32 56 29 53 26 50 24 48 19 53 19 48 24 43 32 51 40 43 45 48" style="fill:#ffa426"/><path d="M23.36,19l.55,6H23a3,3,0,0,1-3-3,3.078,3.078,0,0,1,.06-.61A3,3,0,0,1,23,19Z" style="fill:#ffb680"/><path d="M44,22a3,3,0,0,1-3,3h-.91l.55-6H41a2.988,2.988,0,0,1,2.98,2.69C43.99,21.79,44,21.9,44,22Z" style="fill:#ffb680"/><path d="M46,39.96l1.82.37A3.994,3.994,0,0,1,51,44.25V63H47c0-7-2-10-2-10V48l-5-5-8,8-8-8-5,5v5s-2,3-2,10H13V44.25a3.994,3.994,0,0,1,3.18-3.92L18,39.96l8.33-1.68A1.989,1.989,0,0,0,28,36.31V33l.03-.06a7.964,7.964,0,0,0,7.94,0L36,33v3.31a1.989,1.989,0,0,0,1.67,1.97Z" style="fill:#ffb680"/><path d="M32,37a7.954,7.954,0,0,0,3.97-1.06L36,36V33l-.03-.06a7.964,7.964,0,0,1-7.94,0L28,33v3l.03-.06A7.954,7.954,0,0,0,32,37Z" style="fill:#eb975d"/><path d="M47.82,40.33,46,39.96l-8.33-1.68A1.989,1.989,0,0,1,36,36.31v3a1.989,1.989,0,0,0,1.67,1.97L46,42.96l1.82.37A3.994,3.994,0,0,1,51,47.25v-3A3.994,3.994,0,0,0,47.82,40.33Z" style="fill:#eb975d"/><path d="M16.18,43.33,18,42.96l8.33-1.68A1.989,1.989,0,0,0,28,39.31v-3a1.989,1.989,0,0,1-1.67,1.97L18,39.96l-1.82.37A3.994,3.994,0,0,0,13,44.25v3A3.994,3.994,0,0,1,16.18,43.33Z" style="fill:#eb975d"/><path d="M40.64,19l-.55,6L40,26a8.014,8.014,0,0,1-2.34,5.66,7.838,7.838,0,0,1-1.69,1.28A8,8,0,0,1,24,26l-.09-1-.55-6L23,15h6.86L32,18l2.14-3H41Z" style="fill:#ffdaaa"/><polygon points="29.86 18 32 21 34.14 18 40.73 18 41 15 34.14 15 32 18 29.86 15 23 15 23.27 18 29.86 18" style="fill:#ffb680"/><path d="M46.55,21.49A35.155,35.155,0,0,1,46,15a14,14,0,0,0-28,0,36.783,36.783,0,0,1-.46,6.02C16.95,24.54,16,26.56,16,30c0,4.99,1.99,4,2,9.96l8.33-1.68A1.989,1.989,0,0,0,28,36.31V33l.03-.06A7.974,7.974,0,0,1,24,26l-.09-1H23a3,3,0,0,1-3-3,3.078,3.078,0,0,1,.06-.61A3,3,0,0,1,23,19h.36L23,15H21a15.313,15.313,0,0,1,6.43-3.4,17.7,17.7,0,0,1,9.14,0A15.313,15.313,0,0,1,43,15H41l-.36,4H41a2.988,2.988,0,0,1,2.98,2.69c.01.1.02.21.02.31a3,3,0,0,1-3,3h-.91L40,26a8.014,8.014,0,0,1-2.34,5.66,7.838,7.838,0,0,1-1.69,1.28L36,33v3.31a1.989,1.989,0,0,0,1.67,1.97L46,39.96c.01-5.96,2-4.97,2-9.96C48,26.72,47.14,24.73,46.55,21.49Z" style="fill:#414952"/><path d="M23,19h.36l-.06-.669c-.51.3-.95.589-1.292.84A2.991,2.991,0,0,1,23,19Z" style="fill:#636978"/><path d="M17.54,26.02A36.783,36.783,0,0,0,18,20a14,14,0,0,1,28,0,35.155,35.155,0,0,0,.55,6.49c.414,2.276.956,3.94,1.246,5.863A11.856,11.856,0,0,0,48,30c0-3.28-.86-5.27-1.45-8.51A35.155,35.155,0,0,1,46,15a14,14,0,0,0-28,0,36.783,36.783,0,0,1-.46,6.02C16.95,24.54,16,26.56,16,30a11.763,11.763,0,0,0,.2,2.353C16.515,30.3,17.117,28.541,17.54,26.02Z" style="fill:#636978"/><path d="M40.64,19H41a3,3,0,0,1,1,.179,15.338,15.338,0,0,0-1.3-.848Z" style="fill:#636978"/><path d="M23,15l.36,4,.55,6L24,26a7.992,7.992,0,0,0,11.97,6.94,7.838,7.838,0,0,0,1.69-1.28A8.014,8.014,0,0,0,40,26l.09-1,.55-6L41,15" style="fill:none;stroke:#000;stroke-linejoin:round;stroke-width:2px"/><path d="M28,33v3.31a1.989,1.989,0,0,1-1.67,1.97L18,39.96l-1.82.37A3.994,3.994,0,0,0,13,44.25V63H51V44.25a3.994,3.994,0,0,0-3.18-3.92L46,39.96l-8.33-1.68A1.989,1.989,0,0,1,36,36.31V33" style="fill:none;stroke:#000;stroke-linejoin:round;stroke-width:2px"/><path d="M18,40v-.04C17.99,34,16,34.99,16,30c0-3.44.95-5.46,1.54-8.98A36.783,36.783,0,0,0,18,15a14,14,0,0,1,28,0,35.155,35.155,0,0,0,.55,6.49C47.14,24.73,48,26.72,48,30c0,4.99-1.99,4-2,9.96V40" style="fill:none;stroke:#000;stroke-linejoin:round;stroke-width:2px"/><path d="M40,19h1a2.988,2.988,0,0,1,2.98,2.69c.01.1.02.21.02.31a3,3,0,0,1-3,3H40" style="fill:none;stroke:#000;stroke-linejoin:round;stroke-width:2px"/><path d="M24,19H23a3,3,0,0,0-2.94,2.39A3.078,3.078,0,0,0,20,22a3,3,0,0,0,3,3h1" style="fill:none;stroke:#000;stroke-linejoin:round;stroke-width:2px"/><path d="M19,44v9s-2,3-2,10" style="fill:none;stroke:#000;stroke-linejoin:round;stroke-width:2px"/><path d="M45,44v9s2,3,2,10" style="fill:none;stroke:#000;stroke-linejoin:round;stroke-width:2px"/><polyline points="27 11 27.43 11.6 29.86 15 32 18 34.14 15 36.57 11.6 37 11" style="fill:none;stroke:#000;stroke-linejoin:round;stroke-width:2px"/><path d="M34,15h9a15.313,15.313,0,0,0-6.43-3.4,17.7,17.7,0,0,0-9.14,0A15.313,15.313,0,0,0,21,15h9" style="fill:none;stroke:#000;stroke-linejoin:round;stroke-width:2px"/><polyline points="45 53 40 48 38 50 35 53 32 56 29 53 26 50 24 48 19 53" style="fill:none;stroke:#000;stroke-linejoin:round;stroke-width:2px"/><polyline points="19 48 24 43 32 51 40 43 45 48" style="fill:none;stroke:#000;stroke-linejoin:round;stroke-width:2px"/><path d="M26,50s-5,5-5,10" style="fill:none;stroke:#000;stroke-linejoin:round;stroke-width:2px"/><path d="M38,50s5,5,5,10" style="fill:none;stroke:#000;stroke-linejoin:round;stroke-width:2px"/><path d="M29,53s-4,3-4,7" style="fill:none;stroke:#000;stroke-linejoin:round;stroke-width:2px"/><path d="M35,53s4,3,4,7" style="fill:none;stroke:#000;stroke-linejoin:round;stroke-width:2px"/><line style="fill:none;stroke:#000;stroke-linejoin:round;stroke-width:2px" x1="32" x2="32" y1="51" y2="45"/></g></svg>